<svg xmlns="http://www.w3.org/2000/svg" width="67.814" height="7.985" viewBox="0 0 67.814 7.985">
  <g id="Group_6178" data-name="Group 6178" transform="translate(-87.491 -1273.436)">
    <g id="Group_92" data-name="Group 92" transform="translate(87.491 1273.5)">
      <path id="Path_1459" data-name="Path 1459" d="M260.173,1396.735a.94.94,0,0,1-.505.563l.022.063q.059-.028.116-.06c.037-.023.073-.047.107-.072a1.15,1.15,0,0,0,.186-.17,1.02,1.02,0,0,0,.227-.424s-.065-.007-.16-.021-.221-.037-.343-.068-.24-.066-.325-.094-.142-.052-.142-.052l.048.139.114.04c.069.023.162.05.259.075s.2.046.269.058Z" transform="translate(-258.973 -1389.722)" fill="#a97c50"/>
      <path id="Path_1460" data-name="Path 1460" d="M261,1399.133l-.126-.021c-.074-.012-.174-.036-.269-.058s-.19-.053-.259-.075l-.114-.04.262.758A.94.94,0,0,0,261,1399.133Z" transform="translate(-259.804 -1392.12)" fill="#c49a6c"/>
      <path id="Path_1461" data-name="Path 1461" d="M252.359,1375.622l.022.063a.755.755,0,0,1,.465.037l.022.008.062.022.1.031.062.018.069.017a3.711,3.711,0,0,0,.758.1,5.7,5.7,0,0,0,.812-.033c.113-.012.206-.025.273-.034l.1-.016a.919.919,0,0,1-.267.721,1.011,1.011,0,0,1-.748.315l-.065,0c-.041,0-.1,0-.169-.011s-.149-.013-.235-.025l-.13-.019c-.044-.007-.089-.016-.133-.025s-.087-.017-.13-.028l-.124-.032c-.079-.02-.152-.045-.212-.065s-.11-.039-.145-.053l-.054-.022.048.139.047.018c.03.011.074.028.126.045s.116.037.184.056.142.036.218.053.152.029.225.041.141.019.2.026.109.01.144.013l.055,0a1.092,1.092,0,0,0,.262-.015,1.239,1.239,0,0,0,.253-.074,1.28,1.28,0,0,0,.231-.126c.036-.025.071-.051.1-.079s.064-.058.094-.089a1.111,1.111,0,0,0,.321-.9h0l-.1.017c-.066.01-.159.025-.271.038a6.111,6.111,0,0,1-.809.052,3.886,3.886,0,0,1-.761-.076c-.049-.009-.094-.02-.133-.03l-.1-.026c-.027-.007-.049-.015-.063-.019l-.022-.007A.965.965,0,0,0,252.359,1375.622Z" transform="translate(-252.359 -1370.052)" fill="#a97c50"/>
      <path id="Path_1462" data-name="Path 1462" d="M254.468,1378.155a1.011,1.011,0,0,0,.748-.315.919.919,0,0,0,.267-.721l-.1.016c-.067.009-.16.022-.273.034a5.7,5.7,0,0,1-.812.033,3.7,3.7,0,0,1-.758-.1l-.069-.017-.062-.018-.1-.031c-.027-.008-.048-.016-.062-.021l-.022-.008a.754.754,0,0,0-.465-.037l.313.9.054.022c.035.014.084.033.145.053s.134.045.212.065l.124.032c.043.01.086.019.13.028s.089.018.133.025l.13.019c.086.013.165.019.235.025s.128.009.169.011Z" transform="translate(-252.736 -1371.336)" fill="#c49a6c"/>
      <path id="Path_1463" data-name="Path 1463" d="M267.291,1352.244s.137-.01.346-.036.491-.074.775-.132.569-.121.782-.169l.354-.078a1.1,1.1,0,0,1-.143.864,1.162,1.162,0,0,1-.757.513l-.1.019c-.066.012-.158.028-.271.045a6.952,6.952,0,0,1-.815.08,4.333,4.333,0,0,1-.778-.039c-.05-.007-.1-.015-.137-.023l-.1-.021c-.057-.013-.089-.021-.089-.021h0a1.067,1.067,0,0,1,.254-.693.675.675,0,0,1,.062-.06.738.738,0,0,1,.069-.056.942.942,0,0,1,.158-.091A1.154,1.154,0,0,1,267.291,1352.244Zm2.176-.284-.355.079c-.214.048-.5.111-.784.166s-.567.1-.776.121-.345.029-.345.029a.8.8,0,0,0-.553.242.826.826,0,0,0-.2.566l.09.018c.057.009.141.024.242.035a4.583,4.583,0,0,0,.779.016,7.66,7.66,0,0,0,.81-.095c.112-.018.2-.036.269-.048l.1-.02a.938.938,0,0,0,.6-.413A.888.888,0,0,0,269.467,1351.96Z" transform="translate(-265.585 -1347.595)" fill="#a97c50"/>
      <path id="Path_1464" data-name="Path 1464" d="M268.2,1355.433l.09.018c.057.009.141.024.242.035a4.583,4.583,0,0,0,.779.016,7.661,7.661,0,0,0,.81-.095c.112-.018.2-.036.269-.048l.1-.02a.938.938,0,0,0,.6-.413.887.887,0,0,0,.117-.7l-.355.079c-.214.048-.5.111-.784.166s-.567.1-.776.122-.345.029-.345.029a.8.8,0,0,0-.553.242A.826.826,0,0,0,268.2,1355.433Z" transform="translate(-267.328 -1349.865)" fill="#c49a6c"/>
      <path id="Path_1465" data-name="Path 1465" d="M287.446,1328.729l.356-.08c.214-.048.5-.112.787-.166s.57-.1.78-.118.347-.027.347-.027a1.074,1.074,0,0,1-.152.788,1.039,1.039,0,0,1-.285.285,1.136,1.136,0,0,1-.4.17l-.353.077c-.212.047-.5.112-.781.172s-.568.113-.778.145-.349.046-.349.046h0a1.079,1.079,0,0,1,.136-.81A1.109,1.109,0,0,1,287.446,1328.729Zm2.184-.28s-.137.009-.348.035-.494.072-.779.129-.571.121-.784.169l-.355.079a.884.884,0,0,0-.559.386.863.863,0,0,0-.108.656l.1-.013c.061-.008.148-.022.254-.039.21-.035.494-.091.778-.153l.78-.172c.212-.046.352-.074.352-.074a.866.866,0,0,0,.555-.363A.853.853,0,0,0,289.63,1328.449Z" transform="translate(-284.71 -1325.392)" fill="#a97c50"/>
      <path id="Path_1466" data-name="Path 1466" d="M288.191,1331.833l.1-.013c.061-.008.148-.022.254-.039.21-.035.494-.091.778-.153l.78-.172c.212-.046.352-.074.352-.074a.866.866,0,0,0,.555-.363.853.853,0,0,0,.12-.639s-.137.009-.348.035-.494.072-.779.129-.571.121-.784.169l-.355.079a.884.884,0,0,0-.559.386A.863.863,0,0,0,288.191,1331.833Z" transform="translate(-286.205 -1327.323)" fill="#c49a6c"/>
      <path id="Path_1467" data-name="Path 1467" d="M306.391,1308.02l.105-.015c.066-.01.163-.021.276-.033a5.689,5.689,0,0,1,.824-.028l.108.006.107.009.1.011.1.014.1.015.091.018c.058.012.112.023.162.037l.133.037c.039.012.073.024.1.033l.085.03a1.074,1.074,0,0,1-.3.656,1,1,0,0,1-.682.241s-.034,0-.093,0-.146,0-.249.013c-.208.015-.49.049-.776.1s-.572.11-.786.157l-.357.08a1.1,1.1,0,0,1,.165-.877A1.179,1.179,0,0,1,306.391,1308.02Zm2.184.2-.086-.026-.1-.029-.134-.031a3.956,3.956,0,0,0-.771-.083,6.1,6.1,0,0,0-.82.047c-.113.014-.208.028-.274.038l-.1.017a.957.957,0,0,0-.629.406.9.9,0,0,0-.136.707l.359-.079c.215-.047.5-.106.789-.151a7.25,7.25,0,0,1,.776-.085c.1-.006.189-.006.248-.007h.093a.774.774,0,0,0,.553-.188A.822.822,0,0,0,308.574,1308.222Z" transform="translate(-302.496 -1306.113)" fill="#a97c50"/>
      <path id="Path_1468" data-name="Path 1468" d="M307.087,1311.208l.359-.079c.215-.047.5-.106.789-.151a7.25,7.25,0,0,1,.776-.085c.1-.006.189-.006.248-.007h.093a.775.775,0,0,0,.553-.188.821.821,0,0,0,.237-.536l-.086-.026-.1-.029-.134-.031a3.966,3.966,0,0,0-.771-.083,6.115,6.115,0,0,0-.82.048c-.113.014-.208.028-.274.038l-.1.017a.956.956,0,0,0-.629.406A.9.9,0,0,0,307.087,1311.208Z" transform="translate(-304.063 -1308.053)" fill="#c49a6c"/>
      <path id="Path_1469" data-name="Path 1469" d="M328.73,1286.8l.029,0,.082.015c.07.014.168.033.284.065.057.015.118.032.183.053s.13.042.2.068.135.053.2.083.134.063.2.1a3.682,3.682,0,0,1,.644.433c.079.066.14.121.183.163l.066.064a1.473,1.473,0,0,1-.131.165,1.121,1.121,0,0,1-.139.131.913.913,0,0,1-.143.1.808.808,0,0,1-.146.064.9.9,0,0,1-.661-.075l-.081-.035c-.026-.011-.058-.025-.1-.038l-.127-.044c-.048-.017-.1-.03-.156-.046l-.088-.023-.092-.02-.1-.019-.1-.016-.1-.015-.106-.011a5.09,5.09,0,0,0-.814-.005c-.113.008-.209.017-.275.025l-.105.012a1.05,1.05,0,0,1,.017-.244,1.076,1.076,0,0,1,.075-.236,1.132,1.132,0,0,1,.129-.219,1.264,1.264,0,0,1,1.172-.5Zm1.938,1.063-.067-.061-.08-.07c-.031-.027-.067-.055-.107-.087-.081-.064-.178-.132-.289-.2-.055-.034-.114-.069-.176-.1s-.126-.066-.192-.1a3.681,3.681,0,0,0-.407-.164c-.068-.024-.134-.042-.2-.061l-.095-.026-.089-.02c-.058-.013-.112-.025-.16-.033l-.125-.021-.082-.012-.029,0a1.019,1.019,0,0,0-.789.255.931.931,0,0,0-.331.712l.106-.01.121-.01.157-.009a4.779,4.779,0,0,1,.816.029l.106.014.1.019.1.02.1.023c.063.015.122.031.178.05s.107.033.154.052c.094.036.168.067.219.092l.079.038a.7.7,0,0,0,.538.069A.854.854,0,0,0,330.668,1287.865Z" transform="translate(-323.222 -1286.124)" fill="#a97c50"/>
      <path id="Path_1470" data-name="Path 1470" d="M329.406,1289.665l.106-.01.121-.01.156-.009a4.791,4.791,0,0,1,.816.029l.106.015.1.019.1.02.1.023c.063.016.122.031.178.05s.107.034.154.052c.094.036.168.067.219.092l.079.038a.7.7,0,0,0,.538.069.854.854,0,0,0,.444-.379l-.067-.061-.08-.07c-.031-.027-.067-.055-.107-.087-.081-.064-.178-.132-.289-.2-.055-.034-.114-.069-.176-.1s-.126-.066-.192-.1a3.7,3.7,0,0,0-.407-.164c-.068-.024-.134-.042-.2-.061l-.095-.025-.089-.021c-.058-.012-.112-.025-.16-.033l-.125-.021-.082-.012-.029,0a1.02,1.02,0,0,0-.789.256A.93.93,0,0,0,329.406,1289.665Z" transform="translate(-325.179 -1287.921)" fill="#c49a6c"/>
      <path id="Path_1471" data-name="Path 1471" d="M358.755,1274.868l.089.064c.056.043.134.1.224.177a4.37,4.37,0,0,1,.585.593,3.272,3.272,0,0,1,.413.653c.022.045.04.088.056.125s.029.07.039.1.018.049.023.063l.008.022a1.82,1.82,0,0,1-.183.1,1.4,1.4,0,0,1-.174.065l-.042.011-.042.01a.671.671,0,0,1-.081.012.684.684,0,0,1-.157,0,.536.536,0,0,1-.077-.011l-.038-.01-.038-.01a.612.612,0,0,1-.075-.029c-.025-.012-.05-.022-.075-.037a.784.784,0,0,1-.074-.047.818.818,0,0,1-.074-.054c-.024-.02-.049-.042-.073-.065s-.048-.047-.072-.073l-.062-.067c-.04-.042-.1-.1-.173-.169a3.826,3.826,0,0,0-.609-.459,3.637,3.637,0,0,0-.746-.34c-.111-.038-.206-.062-.274-.079s-.107-.026-.107-.026a.991.991,0,0,1,.121-.225,1.12,1.12,0,0,1,.177-.193,1.309,1.309,0,0,1,.223-.151q.061-.031.125-.057l.065-.025.066-.02c.044-.012.089-.023.135-.031a1.146,1.146,0,0,1,.137-.016,1.282,1.282,0,0,1,.137,0c.045,0,.09.007.135.013a1.124,1.124,0,0,1,.257.068A1.029,1.029,0,0,1,358.755,1274.868Zm1.316,1.757s-.012-.03-.034-.084-.057-.128-.1-.218a3.327,3.327,0,0,0-.438-.635,4.411,4.411,0,0,0-.6-.57c-.046-.037-.089-.069-.128-.1l-.1-.073c-.057-.041-.091-.062-.091-.062a1.058,1.058,0,0,0-1.03-.031.951.951,0,0,0-.179.118.925.925,0,0,0-.078.071,1.021,1.021,0,0,0-.068.08.793.793,0,0,0-.1.177l.028.007.078.022.12.037.072.024.079.029c.055.021.113.042.173.069s.123.056.186.086.127.067.189.1.125.075.185.114a3.988,3.988,0,0,1,.6.48c.072.071.129.133.167.175.019.021.034.039.044.051l.015.018a.731.731,0,0,0,.477.281.834.834,0,0,0,.546-.17Z" transform="translate(-351.211 -1274.662)" fill="#a97c50"/>
      <path id="Path_1472" data-name="Path 1472" d="M359.953,1276.541l.028.007.078.022.12.037.072.024.079.029c.055.021.113.042.173.069s.123.056.186.086.127.067.189.1.125.075.185.114a3.989,3.989,0,0,1,.6.48c.072.071.129.133.167.175.019.021.034.039.044.051l.015.018a.731.731,0,0,0,.477.281.834.834,0,0,0,.546-.17h0s-.012-.03-.034-.084-.057-.128-.1-.218a3.335,3.335,0,0,0-.438-.635,4.41,4.41,0,0,0-.6-.57c-.046-.037-.089-.069-.128-.1l-.1-.073c-.057-.041-.091-.062-.091-.062a1.01,1.01,0,0,0-.827-.111,1.025,1.025,0,0,0-.2.08,1.024,1.024,0,0,0-.257.189,1.016,1.016,0,0,0-.068.08A.793.793,0,0,0,359.953,1276.541Z" transform="translate(-354.05 -1275.901)" fill="#c49a6c"/>
      <path id="Path_1473" data-name="Path 1473" d="M393.224,1275.507l.084.067c.053.042.128.108.213.185a4.043,4.043,0,0,1,.544.611c.041.06.081.118.117.176s.07.118.1.174.058.113.082.165.045.1.064.149l.026.066.021.06c.013.038.024.07.032.1s.015.048.019.063l.006.022c.01.035.021.069.032.1s.024.064.038.093a.954.954,0,0,0,.093.16.785.785,0,0,0,.259.229l.041-.052a.7.7,0,0,1-.35-.485l-.005-.023c0-.015-.009-.037-.017-.064-.016-.053-.037-.135-.071-.227a3.181,3.181,0,0,0-.338-.68,3.9,3.9,0,0,0-.522-.632l-.115-.11c-.035-.033-.066-.059-.092-.082l-.083-.071a.945.945,0,0,1,.779-.227c.036,0,.072.011.108.019s.071.02.106.032.069.026.1.041.066.034.1.052.062.039.091.06.056.046.083.071a.843.843,0,0,1,.137.164l.041.064.046.074.055.1c.02.036.041.074.062.115s.042.085.063.13c.043.088.082.188.119.282a4.069,4.069,0,0,1,.157.529l.021.1.014.076.011.065.091-.116-.011-.057c-.007-.037-.018-.09-.033-.152s-.033-.138-.057-.217l-.038-.123c-.014-.042-.029-.084-.044-.126a3.951,3.951,0,0,0-.2-.467c-.032-.064-.062-.115-.083-.152l-.033-.058a1.07,1.07,0,0,0-.164-.211,1.265,1.265,0,0,0-.214-.17,1.324,1.324,0,0,0-.519-.185,1.3,1.3,0,0,0-.137-.012c-.045,0-.091,0-.136,0a1.15,1.15,0,0,0-.26.049A1.025,1.025,0,0,0,393.224,1275.507Z" transform="translate(-385.496 -1275.166)" fill="#a97c50"/>
      <path id="Path_1474" data-name="Path 1474" d="M397.987,1276.882a.844.844,0,0,0-.137-.164c-.026-.025-.054-.049-.083-.071s-.06-.041-.091-.06-.064-.036-.1-.052-.068-.028-.1-.04-.07-.023-.106-.032-.072-.014-.108-.019a.945.945,0,0,0-.779.227l.083.071c.026.023.057.049.092.082l.115.11a3.9,3.9,0,0,1,.522.632,3.181,3.181,0,0,1,.338.68c.034.092.056.173.071.227.008.027.013.048.017.063l.005.023a.7.7,0,0,0,.35.485l.5-.632-.011-.065-.014-.076-.021-.1a4.076,4.076,0,0,0-.157-.529c-.037-.094-.076-.193-.119-.282-.021-.045-.042-.088-.063-.13s-.042-.079-.062-.115l-.055-.1-.046-.074Z" transform="translate(-388.577 -1276.336)" fill="#c49a6c"/>
      <path id="Path_1475" data-name="Path 1475" d="M429.416,1288.544a.868.868,0,0,1,.233-.037.964.964,0,0,1,.238.027,1.019,1.019,0,0,1,.228.085,1.163,1.163,0,0,1,.106.061,1.215,1.215,0,0,1,.1.074l.042-.053a1.28,1.28,0,0,0-.537-.26,1.358,1.358,0,0,0-.146-.022,1.14,1.14,0,0,0-.147,0,.992.992,0,0,0-.283.054h0l.025.049c.015.031.038.075.062.13s.051.117.079.184.052.141.077.212.045.145.064.211.033.13.046.183.021.1.027.129l.009.049.091-.115s-.011-.059-.032-.149-.052-.209-.092-.329l-.03-.09-.032-.086c-.021-.056-.041-.11-.061-.155C429.444,1288.605,429.416,1288.544,429.416,1288.544Z" transform="translate(-419.543 -1287.661)" fill="#a97c50"/>
      <path id="Path_1476" data-name="Path 1476" d="M432.313,1290.126s.028.061.067.15c.019.045.039.1.061.155l.032.086.03.09c.04.119.07.24.092.328s.032.149.032.149l.591-.749c-.031-.026-.064-.051-.1-.074a1.159,1.159,0,0,0-.106-.061,1.024,1.024,0,0,0-.228-.085.97.97,0,0,0-.238-.027A.868.868,0,0,0,432.313,1290.126Z" transform="translate(-422.44 -1289.243)" fill="#c49a6c"/>
    </g>
    <g id="Group_93" data-name="Group 93" transform="translate(96.951 1274.541)">
      <path id="Path_1477" data-name="Path 1477" d="M425.4,1311.233a.893.893,0,0,1-.563-.073l-.041.052a.924.924,0,0,0,.149.064.969.969,0,0,0,.17.041,1.121,1.121,0,0,0,.188.016,1.287,1.287,0,0,0,.2-.013s0-.222-.021-.449c-.005-.056-.011-.113-.017-.167s-.014-.1-.02-.146-.012-.079-.017-.1l-.007-.039-.091.116.005.03c0,.019.008.047.012.08.009.067.021.154.028.243l.01.128.006.112,0,.078Z" transform="translate(-424.797 -1309.494)" fill="#a97c50"/>
      <path id="Path_1478" data-name="Path 1478" d="M426.115,1313.224s0-.011,0-.03l0-.078L426.1,1313l-.01-.128c-.007-.089-.019-.175-.028-.242,0-.034-.009-.061-.012-.081l-.005-.03-.5.629A.893.893,0,0,0,426.115,1313.224Z" transform="translate(-425.511 -1311.486)" fill="#c49a6c"/>
      <path id="Path_1479" data-name="Path 1479" d="M437.035,1293.632l-.041.052a.965.965,0,0,1,.338.586l.014.106.015.12.015.156a7.981,7.981,0,0,1,.024.814c0,.291-.023.577-.038.792l-.027.358a.9.9,0,0,1-.616-.269.812.812,0,0,1-.224-.6s0-.079,0-.2c0-.06,0-.131,0-.208s-.005-.158-.01-.24c-.01-.163-.029-.33-.048-.455-.01-.062-.018-.115-.025-.152l-.011-.057-.091.116s.014.07.029.175c.008.052.016.113.022.179s.013.134.018.2c.01.138.013.275.014.376s0,.17,0,.17a1.011,1.011,0,0,0,.28.738,1.129,1.129,0,0,0,.766.338h0l.028-.359c.016-.215.036-.5.044-.793s0-.587-.01-.814l-.011-.155-.012-.12-.011-.106A1.159,1.159,0,0,0,437.035,1293.632Z" transform="translate(-435.677 -1293.632)" fill="#a97c50"/>
      <path id="Path_1480" data-name="Path 1480" d="M438.067,1296.653a.812.812,0,0,0,.224.6.9.9,0,0,0,.616.269l.027-.358c.015-.214.033-.5.038-.792a7.993,7.993,0,0,0-.025-.815l-.015-.156-.015-.12-.014-.106a.964.964,0,0,0-.338-.586l-.593.75.011.057c.007.036.015.09.025.152.02.125.038.291.048.455.005.082.008.164.01.24s0,.147,0,.207C438.069,1296.573,438.067,1296.653,438.067,1296.653Z" transform="translate(-437.25 -1294.537)" fill="#c49a6c"/>
      <path id="Path_1481" data-name="Path 1481" d="M457.763,1312.541l-.026.363c-.016.217-.04.5-.059.793s-.03.581-.032.8c0,.111,0,.2,0,.271l0,.1a1.142,1.142,0,0,1-.826-.379,1.1,1.1,0,0,1-.288-.83l.028-.36c.017-.215.039-.5.052-.79s.016-.582.008-.807c0-.112-.009-.206-.014-.272l-.008-.1h0a1.145,1.145,0,0,1,.85.366A1.114,1.114,0,0,1,457.763,1312.541Zm-.229,2.217v-.1c0-.065,0-.159,0-.27,0-.222.019-.514.039-.8l.059-.8c.016-.218.024-.365.024-.365a.908.908,0,0,0-.252-.678.934.934,0,0,0-.678-.3s0,.038.006.1.007.16.009.272c0,.224,0,.517-.019.806s-.039.576-.056.792l-.028.361a.893.893,0,0,0,.233.669A.926.926,0,0,0,457.534,1314.758Z" transform="translate(-454.793 -1310.362)" fill="#a97c50"/>
      <path id="Path_1482" data-name="Path 1482" d="M458.514,1313.431s0,.038.006.1.007.16.009.272c0,.224,0,.517-.019.806s-.039.576-.056.792l-.028.361a.893.893,0,0,0,.233.669.926.926,0,0,0,.66.306v-.1c0-.065,0-.159,0-.27,0-.222.019-.514.039-.8l.059-.8c.016-.218.024-.365.024-.365a.908.908,0,0,0-.252-.678A.933.933,0,0,0,458.514,1313.431Z" transform="translate(-456.579 -1312.344)" fill="#c49a6c"/>
      <path id="Path_1483" data-name="Path 1483" d="M477.992,1338.292l0,.095c0,.06-.005.148-.006.251a6.324,6.324,0,0,0,.038.776,4.665,4.665,0,0,0,.161.8c.033.11.066.2.089.268l.04.1a1.037,1.037,0,0,1-.124.024.968.968,0,0,1-.126.008,1.218,1.218,0,0,1-.128-.007,1.264,1.264,0,0,1-.126-.023,1.263,1.263,0,0,1-.8-.6,1.166,1.166,0,0,1-.1-.228,1.106,1.106,0,0,1-.044-.243l-.006-.1c0-.066-.007-.161-.009-.273,0-.225,0-.519.019-.81s.038-.578.055-.794l.027-.362h0a1.131,1.131,0,0,1,.773.36A1.034,1.034,0,0,1,477.992,1338.292Zm.16,2.2-.036-.1c-.022-.065-.05-.16-.08-.27a4.986,4.986,0,0,1-.137-.8,6.99,6.99,0,0,1-.023-.779c0-.1.006-.192.009-.253l0-.1a.833.833,0,0,0-.217-.619.9.9,0,0,0-.621-.287l-.028.36c-.017.216-.038.5-.051.793s-.016.585-.008.811c0,.112.009.208.014.274l.008.105a1,1,0,0,0,1.164.866Z" transform="translate(-473.991 -1334.781)" fill="#a97c50"/>
      <path id="Path_1484" data-name="Path 1484" d="M479,1339.3l-.028.36c-.017.216-.038.5-.051.793s-.016.585-.008.811c0,.112.009.208.014.274l.008.105a1,1,0,0,0,1.164.866l-.036-.1c-.022-.065-.05-.16-.08-.27a4.988,4.988,0,0,1-.137-.8,7.007,7.007,0,0,1-.023-.779c0-.1.006-.192.009-.253l0-.1a.833.833,0,0,0-.217-.619A.9.9,0,0,0,479,1339.3Z" transform="translate(-475.943 -1336.79)" fill="#c49a6c"/>
      <path id="Path_1485" data-name="Path 1485" d="M498.683,1361.954l.018.088c.013.055.031.135.06.23a3.228,3.228,0,0,0,.3.7,3.777,3.777,0,0,0,.488.659c.079.084.149.156.2.2l.08.074a.987.987,0,0,1-.212.138,1.106,1.106,0,0,1-.246.083,1.179,1.179,0,0,1-.267.025c-.045,0-.091,0-.137-.009a1.35,1.35,0,0,1-.136-.025,1.321,1.321,0,0,1-.5-.234,1.127,1.127,0,0,1-.337-.414l-.046-.1c-.028-.065-.066-.158-.106-.268a4.436,4.436,0,0,1-.2-.805,5.733,5.733,0,0,1-.065-.782c0-.1,0-.192,0-.252l0-.1a1.266,1.266,0,0,1,.42.034,1,1,0,0,1,.332.151.822.822,0,0,1,.23.252A1.091,1.091,0,0,1,498.683,1361.954Zm.963,1.941-.077-.078-.086-.089c-.032-.036-.068-.077-.106-.121l-.058-.068-.06-.076c-.04-.053-.082-.105-.121-.165s-.08-.117-.117-.18-.074-.125-.107-.189a3.3,3.3,0,0,1-.274-.709c-.025-.1-.041-.178-.053-.233l-.015-.089a.729.729,0,0,0-.288-.5.879.879,0,0,0-.606-.142s0,.035,0,.095,0,.148,0,.251a5.277,5.277,0,0,0,.083.778,4.224,4.224,0,0,0,.23.8c.044.11.086.2.116.265l.051.1a.841.841,0,0,0,.12.176.928.928,0,0,0,.16.147,1,1,0,0,0,.19.112c.034.015.068.029.1.042a1.018,1.018,0,0,0,.107.03A.955.955,0,0,0,499.645,1363.9Z" transform="translate(-493.576 -1357.453)" fill="#a97c50"/>
      <path id="Path_1486" data-name="Path 1486" d="M499.525,1362.882s0,.035,0,.095,0,.148,0,.251a5.274,5.274,0,0,0,.083.778,4.223,4.223,0,0,0,.23.8c.044.11.086.2.116.265l.051.1a.843.843,0,0,0,.12.176.928.928,0,0,0,.16.147.994.994,0,0,0,.19.112c.034.015.068.029.1.042a1.014,1.014,0,0,0,.107.03.955.955,0,0,0,.8-.154l-.077-.078-.086-.089c-.032-.036-.068-.077-.106-.121l-.058-.068-.06-.076c-.04-.053-.082-.105-.121-.165s-.08-.117-.117-.18-.074-.125-.107-.189a3.3,3.3,0,0,1-.274-.709c-.025-.1-.041-.178-.053-.233l-.015-.089a.729.729,0,0,0-.288-.5A.879.879,0,0,0,499.525,1362.882Z" transform="translate(-495.424 -1359.077)" fill="#c49a6c"/>
      <path id="Path_1487" data-name="Path 1487" d="M519.892,1376.727s.019.026.055.071.089.107.157.182a4.148,4.148,0,0,0,.573.506,3.776,3.776,0,0,0,.711.408c.053.023.1.045.148.062l.117.043.077.027.027.009a1.047,1.047,0,0,1-.142.212,1.176,1.176,0,0,1-.194.175,1.325,1.325,0,0,1-.234.129q-.062.025-.128.045a.985.985,0,0,1-.132.032,1.267,1.267,0,0,1-.27.023c-.045,0-.09,0-.134-.009a1.259,1.259,0,0,1-.131-.024q-.064-.015-.126-.036a1.294,1.294,0,0,1-.121-.052,1.266,1.266,0,0,1-.113-.063,1.154,1.154,0,0,1-.105-.078l-.084-.071c-.053-.045-.127-.114-.212-.195a4.035,4.035,0,0,1-.534-.643,3.294,3.294,0,0,1-.349-.689c-.035-.1-.059-.176-.075-.231l-.023-.088c.033-.016.065-.031.1-.044s.064-.026.1-.037.061-.02.091-.027.06-.016.089-.021a.843.843,0,0,1,.322,0,.509.509,0,0,1,.074.018l.036.013.036.014a.564.564,0,0,1,.07.036c.023.013.047.027.069.043s.045.035.067.053a.829.829,0,0,1,.067.06A1.515,1.515,0,0,1,519.892,1376.727Zm1.693,1.375s-.038-.013-.1-.04-.156-.063-.261-.116c-.052-.026-.108-.053-.166-.085s-.117-.067-.176-.1-.12-.078-.179-.118-.118-.086-.175-.129-.112-.09-.165-.135-.1-.09-.15-.136-.091-.089-.132-.131-.077-.085-.11-.122-.062-.073-.087-.105l-.063-.082c-.034-.045-.052-.073-.052-.073a.713.713,0,0,0-.44-.32.845.845,0,0,0-.56.117l.026.087c.018.055.045.132.083.227a3.3,3.3,0,0,0,.375.673,4.129,4.129,0,0,0,.555.621c.086.079.163.142.217.187s.086.068.086.068a.921.921,0,0,0,.178.109,1.114,1.114,0,0,0,.2.067,1.135,1.135,0,0,0,.212.024,1.062,1.062,0,0,0,.215-.019,1.021,1.021,0,0,0,.207-.061.949.949,0,0,0,.188-.1c.029-.02.057-.041.084-.063a.96.96,0,0,0,.075-.073A.816.816,0,0,0,521.585,1378.1Z" transform="translate(-513.5 -1371.791)" fill="#a97c50"/>
      <path id="Path_1488" data-name="Path 1488" d="M520.8,1377.671l.026.087c.018.055.045.132.083.227a3.305,3.305,0,0,0,.375.673,4.13,4.13,0,0,0,.555.621c.086.079.163.142.217.187l.086.068a.929.929,0,0,0,.178.109,1.1,1.1,0,0,0,.2.067,1.126,1.126,0,0,0,.212.024,1.071,1.071,0,0,0,.215-.019,1.007,1.007,0,0,0,.207-.061.942.942,0,0,0,.188-.1,1,1,0,0,0,.083-.063.918.918,0,0,0,.075-.073.809.809,0,0,0,.12-.166s-.038-.013-.1-.04-.156-.063-.261-.116c-.052-.026-.108-.053-.166-.085s-.117-.067-.176-.1-.12-.078-.179-.118-.118-.086-.175-.129-.112-.09-.165-.135-.1-.09-.15-.136-.091-.089-.132-.131-.077-.085-.11-.122-.062-.073-.087-.105l-.063-.082c-.034-.045-.052-.073-.052-.073a.714.714,0,0,0-.44-.32A.845.845,0,0,0,520.8,1377.671Z" transform="translate(-515.534 -1372.94)" fill="#c49a6c"/>
      <path id="Path_1489" data-name="Path 1489" d="M544.739,1378.563l.077.042.091.047c.036.018.076.036.122.056l.072.031.078.03c.054.02.113.042.174.059a3.39,3.39,0,0,0,.4.1,4.456,4.456,0,0,0,.814.065c.113,0,.212-.005.278-.01l.106-.007a.979.979,0,0,1-.035.245,1.038,1.038,0,0,1-.094.233,1.233,1.233,0,0,1-.346.394q-.055.04-.114.075l-.059.034-.062.03c-.042.019-.084.036-.127.052s-.088.026-.133.036a1.2,1.2,0,0,1-.27.029,1.166,1.166,0,0,1-.265-.034l-.109-.031-.122-.037c-.047-.015-.1-.034-.155-.055l-.086-.032-.091-.038c-.062-.027-.125-.053-.189-.087s-.129-.065-.193-.1-.127-.076-.189-.114a4.129,4.129,0,0,1-.608-.485c-.074-.073-.132-.132-.171-.177l-.06-.069a1.108,1.108,0,0,1,.6-.413A.894.894,0,0,1,544.739,1378.563Zm2.092.535-.107,0c-.067,0-.166,0-.28,0a4.265,4.265,0,0,1-.814-.092c-.07-.014-.14-.033-.206-.052s-.131-.04-.192-.061-.119-.044-.172-.066-.1-.044-.148-.067l-.12-.061-.09-.051-.075-.045a.7.7,0,0,0-.536-.118.55.55,0,0,0-.064.019.513.513,0,0,0-.064.024.937.937,0,0,0-.125.071.873.873,0,0,0-.12.1,1.009,1.009,0,0,0-.112.128l.063.067c.02.021.045.048.075.076l.1.095a3.813,3.813,0,0,0,.622.464,3.746,3.746,0,0,0,.389.2c.066.03.13.056.192.079s.123.046.179.063l.156.048c.047.013.088.023.123.032l.109.026a1.031,1.031,0,0,0,.819-.191,1.2,1.2,0,0,0,.158-.144,1.131,1.131,0,0,0,.122-.169,1,1,0,0,0,.08-.186.865.865,0,0,0,.034-.2Z" transform="translate(-536.965 -1373.759)" fill="#a97c50"/>
      <path id="Path_1490" data-name="Path 1490" d="M545.865,1380.014l.063.067c.02.021.045.048.075.076l.1.1a3.8,3.8,0,0,0,.622.464,3.751,3.751,0,0,0,.389.2c.066.03.13.056.192.079s.123.046.179.064l.156.048.123.032.11.026a1.031,1.031,0,0,0,.819-.191,1.215,1.215,0,0,0,.158-.143,1.152,1.152,0,0,0,.122-.169,1,1,0,0,0,.08-.186.863.863,0,0,0,.034-.2h0l-.107,0c-.067,0-.166,0-.28,0a4.257,4.257,0,0,1-.814-.092c-.07-.014-.14-.033-.206-.052s-.131-.04-.192-.061-.119-.044-.172-.066-.1-.044-.148-.067l-.12-.061-.09-.051-.075-.045a.7.7,0,0,0-.536-.118.579.579,0,0,0-.064.019.536.536,0,0,0-.064.024.944.944,0,0,0-.125.071.869.869,0,0,0-.12.1A1,1,0,0,0,545.865,1380.014Z" transform="translate(-539.223 -1374.939)" fill="#c49a6c"/>
      <path id="Path_1491" data-name="Path 1491" d="M569.472,1367.511l.021.01.06.028.1.042c.038.016.08.031.128.049l.075.027.082.026c.056.017.118.035.182.049a3.667,3.667,0,0,0,.415.075,4.9,4.9,0,0,0,.828.027c.114-.006.213-.013.281-.02l.107-.011a1.121,1.121,0,0,0,.259-.06,1.2,1.2,0,0,0,.235-.115,1.225,1.225,0,0,0,.363-.356l-.051-.043a.974.974,0,0,1-.689.443l-.106.013c-.067.008-.164.017-.279.026a5.172,5.172,0,0,1-.825,0,3.864,3.864,0,0,1-.417-.06c-.064-.012-.127-.029-.183-.043s-.111-.031-.159-.046c-.1-.03-.174-.061-.227-.082s-.083-.035-.083-.035a.826.826,0,0,1,.275-.508.751.751,0,0,1,.551-.136l.062.006.166.01c.069,0,.15,0,.239,0s.184,0,.279-.011c.193-.012.387-.036.534-.057s.246-.038.246-.038l-.113-.095-.212.032-.216.027c-.079.008-.162.017-.246.022-.167.012-.33.016-.45.013s-.2-.008-.2-.008c-.036,0-.071,0-.1,0s-.068,0-.1,0a1.108,1.108,0,0,0-.181.032c-.028.009-.056.016-.082.026s-.051.022-.076.033a.759.759,0,0,0-.135.085.837.837,0,0,0-.21.253,1.107,1.107,0,0,0-.078.169A1.48,1.48,0,0,0,569.472,1367.511Z" transform="translate(-561.535 -1362.621)" fill="#a97c50"/>
      <path id="Path_1492" data-name="Path 1492" d="M572.338,1368.443a.75.75,0,0,0-.551.137.825.825,0,0,0-.275.508s.03.014.083.035.131.053.227.082c.048.015.1.032.159.046s.119.031.183.042a3.863,3.863,0,0,0,.417.06,5.187,5.187,0,0,0,.826,0c.114-.009.211-.018.278-.026l.106-.013a.975.975,0,0,0,.689-.443l-.615-.519s-.1.017-.246.038-.342.045-.534.057c-.1.007-.192.009-.28.012s-.17,0-.239,0l-.165-.01Z" transform="translate(-563.463 -1364.256)" fill="#c49a6c"/>
      <path id="Path_1493" data-name="Path 1493" d="M591.632,1353.61a.827.827,0,0,1,.2-.7l-.051-.043a.956.956,0,0,0-.206.38,1.177,1.177,0,0,0-.03.467h.047c.03,0,.073,0,.124,0,.1,0,.243-.009.385-.021s.284-.03.392-.045l.18-.027-.113-.095-.147.021c-.088.012-.205.026-.321.037l-.17.014-.147.008-.1,0Z" transform="translate(-582.384 -1349.619)" fill="#a97c50"/>
      <path id="Path_1494" data-name="Path 1494" d="M593.171,1354.354h.039l.1,0,.147-.007.17-.014c.116-.011.233-.025.321-.037l.147-.021-.729-.615A.827.827,0,0,0,593.171,1354.354Z" transform="translate(-583.923 -1350.363)" fill="#c49a6c"/>
    </g>
    <g id="Group_94" data-name="Group 94" transform="translate(106.345 1273.436)">
      <path id="Path_1495" data-name="Path 1495" d="M613.218,1363.406a.9.9,0,0,1-.126.663l.051.043a1.1,1.1,0,0,0,.162-.841l-.147.032c-.088.019-.206.044-.323.068s-.235.046-.323.061l-.146.025.113.095.115-.02c.07-.012.162-.029.254-.048C613.033,1363.447,613.218,1363.406,613.218,1363.406Z" transform="translate(-611.469 -1358.346)" fill="#a97c50"/>
      <path id="Path_1496" data-name="Path 1496" d="M615.157,1365.728s-.185.041-.37.078c-.092.018-.185.036-.254.048l-.115.02.613.517A.9.9,0,0,0,615.157,1365.728Z" transform="translate(-613.408 -1360.668)" fill="#c49a6c"/>
      <path id="Path_1497" data-name="Path 1497" d="M596.013,1339.032l.051.043a.863.863,0,0,1,.49-.26s.139-.024.35-.066.494-.1.777-.168.567-.124.778-.165.35-.064.35-.064a.87.87,0,0,1-.1.668.9.9,0,0,1-.566.4l-.21.047c-.126.028-.294.066-.462.1s-.337.067-.463.089l-.209.035.113.095.179-.031c.108-.019.251-.047.395-.076s.287-.061.395-.085l.179-.04a1.122,1.122,0,0,0,.706-.5,1.083,1.083,0,0,0,.129-.826h0s-.139.02-.35.059-.494.1-.778.161-.567.126-.778.17l-.255.052-.1.019A1.093,1.093,0,0,0,596.013,1339.032Z" transform="translate(-596.013 -1334.678)" fill="#a97c50"/>
      <path id="Path_1498" data-name="Path 1498" d="M599.021,1341.544a.9.9,0,0,0,.566-.4.869.869,0,0,0,.1-.668s-.139.023-.35.063-.494.1-.777.165-.566.125-.777.168-.35.066-.35.066a.862.862,0,0,0-.49.26l.731.616.21-.035c.126-.022.294-.054.463-.089s.336-.072.462-.1Z" transform="translate(-596.895 -1336.802)" fill="#c49a6c"/>
      <path id="Path_1499" data-name="Path 1499" d="M611.266,1317.38l.1-.021c.065-.013.157-.032.267-.052.221-.041.516-.088.807-.114a5.124,5.124,0,0,1,.782-.015c.1.006.188.016.246.023s.091.013.091.013a1.378,1.378,0,0,1-.01.212,1.087,1.087,0,0,1-.04.191.915.915,0,0,1-.169.321,1.046,1.046,0,0,1-.685.357l-.1.013c-.061.009-.148.022-.253.039-.21.035-.492.09-.776.152l-.779.171-.256.054-.1.02h0a1.091,1.091,0,0,1,.132-.851A1.147,1.147,0,0,1,611.266,1317.38Zm2.2-.074s-.033-.005-.092-.01-.144-.013-.247-.015a5.538,5.538,0,0,0-.781.034c-.289.031-.583.083-.8.126-.11.021-.2.041-.265.054l-.1.021a.923.923,0,0,0-.586.412.882.882,0,0,0-.107.687l1.133-.248c.284-.06.566-.113.776-.145.1-.016.192-.027.252-.035l.095-.011a.819.819,0,0,0,.553-.282A.831.831,0,0,0,613.462,1317.306Z" transform="translate(-609.579 -1314.774)" fill="#a97c50"/>
      <path id="Path_1500" data-name="Path 1500" d="M611.988,1320.483l1.133-.248c.284-.06.566-.113.776-.145.1-.016.192-.027.252-.035l.1-.011a.819.819,0,0,0,.553-.282.831.831,0,0,0,.172-.589s-.033-.005-.092-.01-.144-.013-.247-.015a5.539,5.539,0,0,0-.781.034c-.289.031-.583.083-.8.126-.11.021-.2.041-.265.054l-.1.021a.923.923,0,0,0-.586.412A.882.882,0,0,0,611.988,1320.483Z" transform="translate(-611.085 -1316.642)" fill="#c49a6c"/>
      <path id="Path_1501" data-name="Path 1501" d="M631.534,1295.919h.11l.125,0,.161.009a4.085,4.085,0,0,1,.823.14,3.348,3.348,0,0,1,.714.294c.089.052.158.094.207.127l.075.052a1.8,1.8,0,0,1-.093.186,1.4,1.4,0,0,1-.1.154.75.75,0,0,1-.057.064.737.737,0,0,1-.059.058.77.77,0,0,1-.127.091c-.023.011-.045.025-.068.035s-.048.017-.072.026a.8.8,0,0,1-.157.032c-.028,0-.057,0-.086,0a.843.843,0,0,1-.091,0l-.047,0-.048-.005q-.049-.007-.1-.018s-.032-.008-.088-.018-.139-.025-.239-.036a4.534,4.534,0,0,0-.769-.018,7.649,7.649,0,0,0-.8.092c-.11.018-.2.035-.267.047l-.1.02h0a1.111,1.111,0,0,1,.264-.9A1.219,1.219,0,0,1,631.534,1295.919Zm2.094.664-.076-.048c-.05-.032-.12-.071-.211-.119-.045-.024-.094-.046-.149-.071l-.084-.036-.089-.035-.095-.035-.1-.031-.1-.031-.105-.027a4.21,4.21,0,0,0-.825-.11c-.116,0-.216,0-.285,0l-.109,0a1,1,0,0,0-.712.353.911.911,0,0,0-.22.721l.1-.019c.064-.012.158-.027.268-.044a7.008,7.008,0,0,1,.807-.077,4.273,4.273,0,0,1,.767.041c.05.008.095.015.135.023l.1.022.064.015.023.006a.718.718,0,0,0,.545-.045A.846.846,0,0,0,633.628,1296.583Z" transform="translate(-628.473 -1294.689)" fill="#a97c50"/>
      <path id="Path_1502" data-name="Path 1502" d="M632.2,1299.146l.1-.019c.064-.012.158-.027.268-.044a7.007,7.007,0,0,1,.807-.077,4.285,4.285,0,0,1,.767.041c.05.008.095.015.135.023l.1.022.064.015.023.006a.718.718,0,0,0,.545-.045.845.845,0,0,0,.347-.454l-.076-.048c-.05-.032-.12-.071-.211-.119-.045-.024-.094-.046-.149-.071l-.084-.036-.089-.035-.1-.035-.1-.031-.1-.031-.105-.027a4.211,4.211,0,0,0-.825-.11c-.116,0-.216,0-.285,0l-.109,0a1,1,0,0,0-.712.353A.911.911,0,0,0,632.2,1299.146Z" transform="translate(-630.205 -1296.72)" fill="#c49a6c"/>
      <path id="Path_1503" data-name="Path 1503" d="M657.648,1278.539l.1.046c.064.031.153.077.256.134a4.413,4.413,0,0,1,.678.482,3.781,3.781,0,0,1,.534.563c.031.041.058.078.082.111s.043.064.058.088l.048.076a1.08,1.08,0,0,1-.644.327.836.836,0,0,1-.165,0,.635.635,0,0,1-.083-.016c-.028-.007-.054-.013-.082-.023a.768.768,0,0,1-.082-.034.893.893,0,0,1-.081-.041c-.027-.015-.054-.033-.082-.052s-.054-.038-.081-.059l-.07-.055c-.045-.034-.111-.081-.2-.136a3.26,3.26,0,0,0-.681-.331,3.818,3.818,0,0,0-.8-.182l-.159-.016-.123-.008-.109-.005a1.046,1.046,0,0,1,.071-.242,1.108,1.108,0,0,1,.132-.222,1.17,1.17,0,0,1,.186-.192,1.216,1.216,0,0,1,.11-.082c.039-.025.078-.048.119-.07a1.048,1.048,0,0,1,.127-.058c.043-.017.087-.033.132-.045s.091-.022.136-.03l.068-.01.069-.005c.046,0,.092,0,.137,0a1.056,1.056,0,0,1,.135.016,1.2,1.2,0,0,1,.13.03A1.223,1.223,0,0,1,657.648,1278.539Zm1.631,1.489-.051-.074-.062-.086c-.024-.033-.053-.068-.086-.108-.065-.081-.146-.167-.239-.263s-.2-.19-.314-.281a4.124,4.124,0,0,0-.7-.457c-.1-.055-.2-.095-.261-.125-.033-.015-.058-.024-.076-.031l-.027-.011a.947.947,0,0,0-.424-.063,1.093,1.093,0,0,0-.422.122,1.046,1.046,0,0,0-.333.272.914.914,0,0,0-.11.176.889.889,0,0,0-.064.193l.109.009.123.012.159.022a3.75,3.75,0,0,1,.793.213,3.278,3.278,0,0,1,.669.358c.082.057.147.109.191.143.022.017.039.033.051.042l.018.015a.932.932,0,0,0,.13.093.646.646,0,0,0,.132.063.576.576,0,0,0,.135.034.648.648,0,0,0,.135,0A.823.823,0,0,0,659.279,1280.027Z" transform="translate(-652.682 -1278.173)" fill="#a97c50"/>
      <path id="Path_1504" data-name="Path 1504" d="M658.563,1280.723l.109.009.123.012.159.022a3.751,3.751,0,0,1,.793.213,3.272,3.272,0,0,1,.669.358c.082.057.147.109.191.143.022.017.04.033.051.042l.018.015a.932.932,0,0,0,.13.093.646.646,0,0,0,.132.063.577.577,0,0,0,.135.033.632.632,0,0,0,.135,0,.822.822,0,0,0,.519-.274l-.051-.074-.062-.086c-.024-.033-.054-.068-.086-.108-.065-.081-.146-.167-.239-.263s-.2-.19-.314-.281a4.123,4.123,0,0,0-.7-.458c-.1-.055-.2-.095-.261-.125-.033-.015-.058-.024-.076-.032l-.027-.011a.949.949,0,0,0-.424-.063,1.119,1.119,0,0,0-.217.04,1.134,1.134,0,0,0-.205.082,1.046,1.046,0,0,0-.333.272.912.912,0,0,0-.11.176A.89.89,0,0,0,658.563,1280.723Z" transform="translate(-655.131 -1279.603)" fill="#c49a6c"/>
      <path id="Path_1505" data-name="Path 1505" d="M692.222,1273.875l.02.021c.013.014.031.035.055.062l.082.1.049.06.052.069c.036.048.073.1.111.154s.075.115.113.176.072.127.107.191.066.133.1.2a3.612,3.612,0,0,1,.237.739c.022.1.034.185.043.241,0,.029.007.052.009.067l0,.024a1.417,1.417,0,0,1-.4.066.941.941,0,0,1-.172-.012.808.808,0,0,1-.154-.039.721.721,0,0,1-.26-.169.894.894,0,0,1-.111-.131q-.027-.037-.052-.079l-.025-.043-.024-.044-.042-.078c-.027-.051-.069-.119-.124-.2-.027-.043-.059-.085-.094-.132l-.055-.072c-.019-.025-.039-.048-.06-.073-.042-.049-.086-.1-.134-.151s-.1-.1-.15-.151a4.49,4.49,0,0,0-.642-.506c-.1-.061-.182-.113-.243-.145l-.1-.051a.971.971,0,0,1,.171-.187,1.082,1.082,0,0,1,.214-.143,1.177,1.177,0,0,1,.244-.093,1.2,1.2,0,0,1,.261-.041c.044,0,.089,0,.133,0a1.311,1.311,0,0,1,.134.014c.044.007.088.015.132.027s.087.026.129.042A1.143,1.143,0,0,1,692.222,1273.875Zm.863,2.033,0-.024c0-.015-.006-.039-.011-.067l-.02-.1-.013-.065-.017-.07a3.469,3.469,0,0,0-.264-.727c-.033-.065-.068-.13-.1-.195s-.076-.125-.115-.186c-.079-.118-.16-.229-.236-.32s-.142-.166-.19-.218l-.057-.061-.02-.021a1.019,1.019,0,0,0-.777-.288.956.956,0,0,0-.717.359l.094.055c.059.034.142.088.237.154a4.408,4.408,0,0,1,.625.527c.051.05.1.1.145.156.023.026.045.051.067.077l.062.078a3.262,3.262,0,0,1,.2.285c.051.087.091.156.116.208l.039.08a.7.7,0,0,0,.379.386A.86.86,0,0,0,693.085,1275.909Z" transform="translate(-685.188 -1273.496)" fill="#a97c50"/>
      <path id="Path_1506" data-name="Path 1506" d="M693.6,1275.061l.094.055c.059.034.142.088.237.154a4.4,4.4,0,0,1,.625.527c.051.05.1.105.145.156.023.026.045.051.067.078l.062.078a3.282,3.282,0,0,1,.2.285c.051.087.091.156.116.208l.039.08a.7.7,0,0,0,.379.386.861.861,0,0,0,.582-.022l0-.024c0-.015-.006-.039-.011-.067l-.02-.1-.013-.065-.017-.07a3.477,3.477,0,0,0-.264-.727c-.033-.064-.068-.13-.1-.195s-.076-.125-.115-.186c-.079-.118-.16-.229-.235-.32s-.142-.166-.19-.218l-.057-.061-.02-.021a1.019,1.019,0,0,0-.777-.288A.957.957,0,0,0,693.6,1275.061Z" transform="translate(-688.251 -1274.634)" fill="#c49a6c"/>
      <path id="Path_1507" data-name="Path 1507" d="M728.779,1281.8l.029.106c.019.066.04.163.065.276a5.743,5.743,0,0,1,.1.817c.016.291.011.576,0,.789,0,.106-.009.194-.013.256s-.006.1-.006.1a1.132,1.132,0,0,1-.758-.267.962.962,0,0,1-.316-.671l0-.024c0-.016,0-.038-.006-.067-.006-.057-.015-.142-.031-.24a3.722,3.722,0,0,0-.193-.738,3.616,3.616,0,0,0-.376-.729c-.032-.05-.063-.093-.092-.131l-.075-.1c-.021-.028-.039-.049-.05-.063l-.018-.022a.943.943,0,0,1,.234-.1,1.048,1.048,0,0,1,.259-.042l.067,0,.067,0c.045,0,.09.009.135.017a1.274,1.274,0,0,1,.134.032,1.1,1.1,0,0,1,.131.046,1.31,1.31,0,0,1,.243.132,1.256,1.256,0,0,1,.208.177,1.213,1.213,0,0,1,.16.213A1.1,1.1,0,0,1,728.779,1281.8Zm.077,2.234s0-.035.005-.1.007-.149.01-.255a7.613,7.613,0,0,0-.016-.787,5.355,5.355,0,0,0-.123-.815c-.028-.112-.053-.209-.074-.274l-.033-.1a.866.866,0,0,0-.089-.19.922.922,0,0,0-.132-.168,1.079,1.079,0,0,0-.36-.243,1.057,1.057,0,0,0-.424-.081.887.887,0,0,0-.208.028.782.782,0,0,0-.191.075l.066.088c.04.059.1.14.157.239a3.686,3.686,0,0,1,.347.745,3.924,3.924,0,0,1,.17.746c.013.1.02.185.025.242,0,.029,0,.052,0,.068v.024a.767.767,0,0,0,.253.549A.886.886,0,0,0,728.855,1284.037Z" transform="translate(-719.852 -1280.535)" fill="#a97c50"/>
      <path id="Path_1508" data-name="Path 1508" d="M730.325,1282.485l.066.088c.04.059.1.14.157.239a3.684,3.684,0,0,1,.347.745,3.92,3.92,0,0,1,.17.746c.014.1.02.185.025.242,0,.029,0,.051,0,.067v.024a.768.768,0,0,0,.253.549.887.887,0,0,0,.611.209l.005-.1c0-.062.007-.149.01-.255a7.664,7.664,0,0,0-.016-.787,5.374,5.374,0,0,0-.123-.815c-.028-.112-.053-.209-.074-.275l-.033-.1a.866.866,0,0,0-.089-.19.931.931,0,0,0-.132-.168,1.08,1.08,0,0,0-.36-.243,1.057,1.057,0,0,0-.424-.081.888.888,0,0,0-.208.028A.787.787,0,0,0,730.325,1282.485Z" transform="translate(-722.956 -1281.894)" fill="#c49a6c"/>
      <path id="Path_1509" data-name="Path 1509" d="M759.823,1300.452l.024.1c.015.066.032.162.051.273a6.255,6.255,0,0,1,.07.809c.007.289,0,.572-.015.783-.006.106-.012.194-.016.255l-.007.1a1.068,1.068,0,0,0,.3.832l.054-.04a.862.862,0,0,1-.251-.683s.012-.141.025-.354.027-.5.024-.786a6.767,6.767,0,0,0-.052-.81c-.015-.112-.03-.208-.043-.274l-.02-.105a.949.949,0,0,1,.728.252.939.939,0,0,1,.315.687s0,.026,0,.07,0,.108,0,.184c0,.152-.011.352-.023.55s-.026.4-.037.542l-.019.246.118-.088.016-.214c.01-.128.022-.3.032-.472s.018-.347.022-.478,0-.22,0-.22a1.186,1.186,0,0,0-1.3-1.163Z" transform="translate(-750.836 -1298.965)" fill="#a97c50"/>
      <path id="Path_1510" data-name="Path 1510" d="M763.467,1303.343a.971.971,0,0,0-1.043-.94l.02.105c.013.066.028.162.043.274a6.779,6.779,0,0,1,.052.81c0,.289-.011.573-.025.786s-.025.354-.025.354a.863.863,0,0,0,.251.683l.646-.48s.007-.1.019-.246.025-.344.037-.542.019-.4.022-.55c0-.076,0-.14,0-.184S763.467,1303.343,763.467,1303.343Z" transform="translate(-753.294 -1300.813)" fill="#c49a6c"/>
      <path id="Path_1511" data-name="Path 1511" d="M782.35,1325.816a.914.914,0,0,1,.7.394l.054-.04a1.136,1.136,0,0,0-.867-.473h0s0,.074-.007.185-.013.257-.022.4-.021.291-.028.4l-.014.181.118-.088.035-.479c.008-.12.015-.241.02-.332S782.35,1325.816,782.35,1325.816Z" transform="translate(-771.958 -1322.833)" fill="#a97c50"/>
      <path id="Path_1512" data-name="Path 1512" d="M784.388,1327.862s0,.061-.007.152-.012.212-.02.332l-.035.479.766-.569A.914.914,0,0,0,784.388,1327.862Z" transform="translate(-773.996 -1324.88)" fill="#c49a6c"/>
    </g>
    <g id="Group_95" data-name="Group 95" transform="translate(115.737 1275.648)">
      <path id="Path_1513" data-name="Path 1513" d="M767.87,1347.9a.913.913,0,0,1-.594-.265l-.054.04a1.136,1.136,0,0,0,.755.344l.007-.15c0-.09.012-.209.02-.327l.034-.472-.118.088-.027.37C767.88,1347.71,767.87,1347.9,767.87,1347.9Z" transform="translate(-767.222 -1345.243)" fill="#a97c50"/>
      <path id="Path_1514" data-name="Path 1514" d="M768.8,1349.41s.01-.188.023-.373l.027-.37-.644.478A.913.913,0,0,0,768.8,1349.41Z" transform="translate(-768.147 -1346.755)" fill="#c49a6c"/>
      <path id="Path_1515" data-name="Path 1515" d="M781.892,1334.321l-.054.04a.867.867,0,0,1,.148.562l-.027.355c-.015.213-.031.5-.034.787a7.487,7.487,0,0,0,.034.81c.012.112.024.208.034.274l.017.1a.945.945,0,0,1-.717-.265.931.931,0,0,1-.3-.687s0-.088,0-.218.012-.3.022-.474.023-.341.032-.468l.016-.212-.118.088-.014.18c-.008.108-.018.252-.027.4s-.017.291-.021.4-.006.185-.006.185a1.141,1.141,0,0,0,.365.855,1.155,1.155,0,0,0,.9.323h0l-.02-.1c-.013-.066-.027-.162-.042-.274a6.851,6.851,0,0,1-.05-.809c0-.289.012-.573.026-.785l.018-.257.008-.1A1.072,1.072,0,0,0,781.892,1334.321Z" transform="translate(-780.134 -1333.196)" fill="#a97c50"/>
      <path id="Path_1516" data-name="Path 1516" d="M782.918,1336.989a.932.932,0,0,0,.3.687.945.945,0,0,0,.717.265l-.016-.105c-.011-.066-.022-.162-.034-.274a7.507,7.507,0,0,1-.034-.81c0-.289.019-.574.034-.787l.027-.355a.867.867,0,0,0-.148-.562l-.768.57-.016.212c-.009.127-.022.3-.032.468s-.018.343-.022.474S782.918,1336.989,782.918,1336.989Z" transform="translate(-782.057 -1333.883)" fill="#c49a6c"/>
      <path id="Path_1517" data-name="Path 1517" d="M803.033,1351.987v.024c0,.016,0,.039,0,.068,0,.057.011.143.024.242a3.917,3.917,0,0,0,.167.746,3.666,3.666,0,0,0,.343.745c.06.1.116.181.156.239s.065.088.065.088a.943.943,0,0,1-.116.054,1.083,1.083,0,0,1-.123.038,1.05,1.05,0,0,1-.26.03,1.23,1.23,0,0,1-.268-.03,1.279,1.279,0,0,1-.131-.038,1.13,1.13,0,0,1-.128-.051,1.3,1.3,0,0,1-.235-.141,1.253,1.253,0,0,1-.2-.183,1.207,1.207,0,0,1-.15-.217,1.084,1.084,0,0,1-.092-.241l-.025-.106c-.016-.066-.034-.164-.055-.276a6.231,6.231,0,0,1-.078-.818c-.01-.292,0-.577.01-.79.005-.107.011-.195.015-.257l.007-.1a1.131,1.131,0,0,1,.76.285A.973.973,0,0,1,803.033,1351.987Zm.582,2.107-.062-.091c-.038-.06-.09-.144-.147-.246a3.76,3.76,0,0,1-.315-.759,4.179,4.179,0,0,1-.144-.754c-.011-.1-.015-.186-.019-.244,0-.029,0-.052,0-.068s0-.024,0-.024a.778.778,0,0,0-.246-.561.889.889,0,0,0-.612-.224l-.006.1c0,.062-.009.15-.013.256-.009.212-.014.5,0,.788a5.787,5.787,0,0,0,.1.816c.024.112.045.209.064.276l.029.105a.855.855,0,0,0,.081.192.916.916,0,0,0,.124.172,1.072,1.072,0,0,0,.348.256,1.1,1.1,0,0,0,.206.072,1.037,1.037,0,0,0,.213.027.914.914,0,0,0,.209-.019A.8.8,0,0,0,803.615,1354.094Z" transform="translate(-800.026 -1348.974)" fill="#a97c50"/>
      <path id="Path_1518" data-name="Path 1518" d="M803.972,1352.985l-.006.1c0,.062-.009.15-.013.256-.009.212-.014.5,0,.788a5.778,5.778,0,0,0,.1.816c.024.112.045.209.064.276l.029.105a.859.859,0,0,0,.081.192.917.917,0,0,0,.124.172,1.074,1.074,0,0,0,.348.256,1.1,1.1,0,0,0,.206.072,1.045,1.045,0,0,0,.213.028.914.914,0,0,0,.209-.019.8.8,0,0,0,.195-.067l-.062-.091c-.038-.06-.09-.144-.147-.246a3.763,3.763,0,0,1-.315-.759,4.173,4.173,0,0,1-.144-.754c-.011-.1-.015-.186-.019-.244,0-.029,0-.052,0-.068v-.024a.777.777,0,0,0-.246-.561A.888.888,0,0,0,803.972,1352.985Z" transform="translate(-801.93 -1350.836)" fill="#c49a6c"/>
      <path id="Path_1519" data-name="Path 1519" d="M823.5,1371.854l.038.08c.025.052.064.121.115.208.026.043.055.087.088.136.016.024.033.049.052.074l.057.075c.039.051.082.105.128.156s.093.107.144.157a4.429,4.429,0,0,0,.622.529c.094.065.177.12.236.154l.094.056a1.014,1.014,0,0,1-.177.18,1.153,1.153,0,0,1-.217.134,1.251,1.251,0,0,1-.245.084q-.064.014-.13.022a.979.979,0,0,1-.133.009,1.284,1.284,0,0,1-.269-.024q-.067-.013-.132-.032a1.31,1.31,0,0,1-.128-.047,1.243,1.243,0,0,1-.122-.059q-.059-.034-.113-.073a1.062,1.062,0,0,1-.2-.181l-.019-.022c-.012-.015-.03-.035-.052-.064l-.078-.1c-.029-.039-.062-.083-.1-.133s-.069-.1-.1-.159-.07-.119-.1-.18-.067-.13-.1-.2-.06-.136-.088-.2a3.78,3.78,0,0,1-.209-.748l-.012-.072-.009-.066-.014-.106c0-.029-.006-.052-.007-.068l0-.024h0a1.4,1.4,0,0,1,.4-.049.937.937,0,0,1,.173.02.817.817,0,0,1,.154.047.724.724,0,0,1,.255.181A1.138,1.138,0,0,1,823.5,1371.854Zm1.394,1.656-.092-.059-.1-.068c-.039-.028-.082-.06-.128-.094-.092-.068-.2-.154-.3-.246a4.222,4.222,0,0,1-.306-.3,3.381,3.381,0,0,1-.445-.615c-.047-.089-.083-.16-.106-.213l-.035-.082a.7.7,0,0,0-.364-.4.864.864,0,0,0-.587,0s0,.034.012.091l.016.1c.007.041.015.087.025.136a3.6,3.6,0,0,0,.234.738c.03.066.062.133.1.2s.07.128.106.191.075.119.112.176.075.106.11.155c.07.1.135.172.181.227s.074.084.074.084a1.02,1.02,0,0,0,.77.32A.957.957,0,0,0,824.9,1373.51Z" transform="translate(-819.297 -1368.145)" fill="#a97c50"/>
      <path id="Path_1520" data-name="Path 1520" d="M824.361,1372.685s0,.034.012.092l.016.1c.007.041.015.087.025.136a3.6,3.6,0,0,0,.234.738c.03.066.062.133.1.2s.07.128.106.191.075.119.112.176.075.106.11.155c.07.1.135.171.181.227s.074.084.074.084a1.02,1.02,0,0,0,.77.32.956.956,0,0,0,.728-.333l-.091-.059-.1-.069c-.039-.027-.082-.06-.128-.094-.092-.068-.2-.154-.3-.246a4.187,4.187,0,0,1-.306-.3,3.367,3.367,0,0,1-.445-.615c-.048-.089-.083-.16-.106-.213l-.035-.082a.7.7,0,0,0-.364-.4A.864.864,0,0,0,824.361,1372.685Z" transform="translate(-821.226 -1369.408)" fill="#c49a6c"/>
      <path id="Path_1521" data-name="Path 1521" d="M846.692,1379.155l.069.058c.044.035.108.086.19.144a3.3,3.3,0,0,0,.667.36,3.737,3.737,0,0,0,.791.216l.158.022c.048.006.089.01.123.013l.109.009a1.037,1.037,0,0,1-.082.24,1.1,1.1,0,0,1-.142.217,1.172,1.172,0,0,1-.195.185,1.209,1.209,0,0,1-.114.078q-.06.035-.123.065a1.039,1.039,0,0,1-.129.052c-.044.015-.089.029-.134.04s-.091.018-.137.023a.967.967,0,0,1-.138.01,1.144,1.144,0,0,1-.27-.027,1.245,1.245,0,0,1-.128-.036,1.06,1.06,0,0,1-.122-.053l-.1-.051c-.062-.032-.149-.084-.249-.145a4.629,4.629,0,0,1-.659-.506c-.054-.051-.105-.1-.155-.152s-.1-.1-.139-.152-.083-.1-.12-.146-.07-.09-.1-.133c-.058-.085-.1-.153-.131-.2l-.044-.078a1.084,1.084,0,0,1,.651-.3.577.577,0,0,1,.081,0,.624.624,0,0,1,.082.008c.027,0,.055.012.082.019a.659.659,0,0,1,.082.026,1.056,1.056,0,0,1,.162.081A1.319,1.319,0,0,1,846.692,1379.155Zm1.959.929-.109-.013-.123-.017-.158-.029c-.057-.01-.119-.025-.182-.041l-.1-.025-.1-.03c-.067-.021-.135-.043-.2-.069s-.135-.051-.2-.082a3.382,3.382,0,0,1-.367-.191c-.056-.034-.108-.068-.155-.1s-.093-.066-.133-.1-.076-.058-.107-.084l-.079-.067-.05-.044-.017-.016a.733.733,0,0,0-.526-.213.826.826,0,0,0-.525.253l.048.076c.016.024.035.054.058.088s.05.07.081.111a3.714,3.714,0,0,0,.531.564,4.364,4.364,0,0,0,.675.484c.1.058.191.1.255.136l.1.046a.941.941,0,0,0,.42.081,1.1,1.1,0,0,0,.427-.1,1.051,1.051,0,0,0,.346-.258.923.923,0,0,0,.118-.172A.888.888,0,0,0,848.651,1380.084Z" transform="translate(-841.103 -1375.331)" fill="#a97c50"/>
      <path id="Path_1522" data-name="Path 1522" d="M847.685,1380.355l.048.076c.016.024.035.054.058.088s.05.07.081.111a3.723,3.723,0,0,0,.531.564,4.373,4.373,0,0,0,.675.484c.1.058.191.1.255.136l.1.046a.941.941,0,0,0,.42.081,1.1,1.1,0,0,0,.427-.1,1.051,1.051,0,0,0,.346-.258.923.923,0,0,0,.119-.172.885.885,0,0,0,.073-.191l-.109-.013-.123-.017-.158-.029c-.057-.01-.119-.025-.182-.041l-.1-.025-.1-.03c-.067-.021-.135-.043-.2-.069s-.135-.051-.2-.082a3.394,3.394,0,0,1-.367-.191c-.056-.034-.107-.068-.155-.1s-.093-.066-.133-.1-.076-.058-.107-.084l-.079-.067-.05-.044-.017-.016a.733.733,0,0,0-.526-.213A.826.826,0,0,0,847.685,1380.355Z" transform="translate(-843.271 -1376.464)" fill="#c49a6c"/>
      <path id="Path_1523" data-name="Path 1523" d="M872.879,1374.507s.031.009.087.021.137.031.236.045a4.243,4.243,0,0,0,.766.043,6.914,6.914,0,0,0,.806-.075c.11-.017.2-.032.268-.044l.1-.019a1.112,1.112,0,0,1-.289.9,1.224,1.224,0,0,1-.919.412l-.111,0c-.035,0-.077,0-.125-.007l-.162-.015a3.972,3.972,0,0,1-.818-.174,3.385,3.385,0,0,1-.7-.325c-.087-.055-.155-.1-.2-.135l-.073-.055c.016-.033.032-.065.049-.095s.034-.06.052-.088.036-.054.055-.078.037-.049.057-.071a.8.8,0,0,1,.06-.062.684.684,0,0,1,.061-.055.773.773,0,0,1,.131-.085c.023-.011.045-.023.069-.031s.049-.015.073-.023a.788.788,0,0,1,.157-.024c.028,0,.056,0,.085,0a.822.822,0,0,1,.09.006A1.4,1.4,0,0,1,872.879,1374.507Zm2.167.107-.1.017c-.065.011-.16.025-.27.04a6.384,6.384,0,0,1-.81.058,4.02,4.02,0,0,1-.764-.068c-.1-.018-.179-.04-.234-.054l-.063-.018-.022-.007a.711.711,0,0,0-.543.02.85.85,0,0,0-.368.438l.074.052c.049.034.117.076.206.128a3.331,3.331,0,0,0,.712.3,4.072,4.072,0,0,0,.821.143c.117.008.217.012.286.012h.11a1,1,0,0,0,.728-.337A.914.914,0,0,0,875.046,1374.614Z" transform="translate(-866.012 -1371.135)" fill="#a97c50"/>
      <path id="Path_1524" data-name="Path 1524" d="M873.993,1376.368l.074.052c.048.034.117.076.206.128a3.337,3.337,0,0,0,.712.3,4.055,4.055,0,0,0,.821.143c.117.008.217.012.286.012h.11a1,1,0,0,0,.728-.337.913.913,0,0,0,.24-.722l-.1.017c-.065.011-.16.025-.27.04a6.36,6.36,0,0,1-.81.058,4,4,0,0,1-.764-.068c-.1-.018-.179-.039-.234-.054l-.063-.017-.022-.007a.71.71,0,0,0-.543.02A.85.85,0,0,0,873.993,1376.368Z" transform="translate(-868.135 -1372.462)" fill="#c49a6c"/>
      <path id="Path_1525" data-name="Path 1525" d="M896.659,1349.436l.095-.01c.06-.008.147-.019.252-.035.209-.031.492-.084.775-.144l1.133-.248a1.093,1.093,0,0,1-.136.857,1.155,1.155,0,0,1-.743.514l-.1.02c-.065.012-.158.03-.269.049a7.977,7.977,0,0,1-.811.1,4.751,4.751,0,0,1-.78-.009c-.1-.009-.186-.023-.244-.033s-.09-.016-.09-.016a1.426,1.426,0,0,1,.016-.211,1.1,1.1,0,0,1,.045-.188.9.9,0,0,1,.174-.312.926.926,0,0,1,.288-.221A1.158,1.158,0,0,1,896.659,1349.436Zm2.175-.306-.354.078c-.213.047-.5.112-.781.17s-.566.107-.776.135c-.1.015-.191.023-.252.03l-.095.009a.81.81,0,0,0-.553.264.828.828,0,0,0-.184.579l.024,0,.067.009c.058.007.143.018.245.024a5.061,5.061,0,0,0,.781-.012c.29-.025.586-.072.806-.113.11-.02.2-.039.267-.052l.1-.021a.93.93,0,0,0,.593-.413.885.885,0,0,0,.111-.692Z" transform="translate(-888.689 -1347.069)" fill="#a97c50"/>
      <path id="Path_1526" data-name="Path 1526" d="M897.53,1352.644l.024,0,.067.01c.058.007.143.018.245.024a5.092,5.092,0,0,0,.781-.012c.29-.025.586-.072.806-.113.11-.02.2-.039.267-.052l.1-.021a.93.93,0,0,0,.593-.413.885.885,0,0,0,.111-.692h0l-.354.078c-.213.047-.5.112-.781.17s-.566.107-.776.135c-.1.015-.191.023-.252.03l-.095.009a.809.809,0,0,0-.553.264A.827.827,0,0,0,897.53,1352.644Z" transform="translate(-890.381 -1349.318)" fill="#c49a6c"/>
      <path id="Path_1527" data-name="Path 1527" d="M915.6,1329.155l.1-.013c.061-.009.148-.023.254-.04.211-.036.494-.093.778-.155l.779-.172.255-.054.1-.02a1.074,1.074,0,0,0,.711-.475l-.051-.043a.85.85,0,0,1-.58.391s-.14.026-.351.07-.495.108-.778.17-.567.122-.777.16-.35.059-.35.059a.867.867,0,0,1,.1-.662.891.891,0,0,1,.563-.394l.242-.055c.146-.033.34-.077.535-.117s.39-.078.535-.1.242-.039.242-.039l-.113-.095-.058.009-.154.026c-.127.022-.3.055-.467.09s-.34.073-.467.1l-.212.048a1.116,1.116,0,0,0-.7.492A1.081,1.081,0,0,0,915.6,1329.155Z" transform="translate(-907.437 -1326.814)" fill="#a97c50"/>
      <path id="Path_1528" data-name="Path 1528" d="M917.845,1329.613a.891.891,0,0,0-.563.394.866.866,0,0,0-.1.662s.139-.02.35-.059.494-.1.777-.16.567-.126.778-.17.351-.07.351-.07a.85.85,0,0,0,.58-.391l-.615-.519s-.1.014-.242.039-.34.062-.535.1-.389.084-.535.117Z" transform="translate(-908.928 -1328.449)" fill="#c49a6c"/>
      <path id="Path_1529" data-name="Path 1529" d="M934.631,1314.659a.909.909,0,0,1,.223-.8l-.051-.043a1.162,1.162,0,0,0-.248.462,1.079,1.079,0,0,0-.01.52h0l.18-.04c.108-.024.252-.055.4-.084s.288-.056.4-.074l.179-.03-.113-.095-.148.025c-.09.016-.208.038-.328.062l-.328.069Z" transform="translate(-925.341 -1313.812)" fill="#a97c50"/>
      <path id="Path_1530" data-name="Path 1530" d="M936.224,1315.4l.149-.033.328-.069c.12-.024.238-.046.328-.062l.148-.025-.729-.615A.909.909,0,0,0,936.224,1315.4Z" transform="translate(-926.933 -1314.556)" fill="#c49a6c"/>
    </g>
    <g id="Group_96" data-name="Group 96" transform="translate(125.2 1273.472)">
      <path id="Path_1531" data-name="Path 1531" d="M956.883,1326.185a.858.858,0,0,1-.1.587l.051.043a1.079,1.079,0,0,0,.137-.739h-.038l-.1,0-.145.008-.167.014c-.229.021-.462.058-.462.058l.113.095.113-.016c.067-.01.158-.02.247-.029s.178-.015.244-.02Z" transform="translate(-955.16 -1323.228)" fill="#a97c50"/>
      <path id="Path_1532" data-name="Path 1532" d="M958.822,1328.054l-.11.005c-.066,0-.155.01-.244.02s-.179.019-.247.029l-.113.016.613.517A.858.858,0,0,0,958.822,1328.054Z" transform="translate(-957.099 -1325.096)" fill="#c49a6c"/>
      <path id="Path_1533" data-name="Path 1533" d="M939.705,1306.042l.051.043a.958.958,0,0,1,.566-.305l.1-.015c.066-.009.163-.021.276-.032a5.579,5.579,0,0,1,.823-.021,4.078,4.078,0,0,1,.419.044c.064.009.128.023.185.035s.112.026.161.039c.1.025.177.053.231.072s.084.031.084.031a.823.823,0,0,1-.257.521.76.76,0,0,1-.552.161l-.054,0-.143,0c-.12,0-.281,0-.446.014-.082.006-.165.014-.243.022l-.214.027-.21.031.113.095.177-.026c.106-.014.247-.031.386-.042s.276-.017.378-.017.168,0,.168,0a.986.986,0,0,0,.681-.208.846.846,0,0,0,.2-.263,1.109,1.109,0,0,0,.072-.172,1.5,1.5,0,0,0,.052-.2l-.022-.01-.061-.025-.1-.038c-.039-.015-.081-.028-.13-.044l-.077-.023-.083-.022c-.057-.014-.12-.03-.184-.042a3.875,3.875,0,0,0-.418-.058,5.24,5.24,0,0,0-.827,0c-.114.009-.212.019-.279.027l-.106.013A1.182,1.182,0,0,0,939.705,1306.042Z" transform="translate(-939.705 -1303.865)" fill="#a97c50"/>
      <path id="Path_1534" data-name="Path 1534" d="M942.681,1308.572a.761.761,0,0,0,.552-.161.823.823,0,0,0,.257-.521s-.03-.013-.084-.031-.133-.047-.231-.072c-.049-.013-.1-.027-.161-.039s-.121-.026-.185-.035a4.044,4.044,0,0,0-.419-.044,5.579,5.579,0,0,0-.823.021c-.113.011-.21.023-.276.032l-.1.015a.957.957,0,0,0-.566.305l.731.616.21-.031.214-.027c.079-.008.161-.016.243-.022.165-.012.327-.016.446-.014l.143,0Z" transform="translate(-940.587 -1305.823)" fill="#c49a6c"/>
      <path id="Path_1535" data-name="Path 1535" d="M958.483,1284.85l.11.026.123.031.157.048.087.029.092.034c.063.024.127.048.193.079s.132.059.2.094.13.069.193.106a3.833,3.833,0,0,1,.625.462c.076.07.136.127.177.171l.063.067a1.458,1.458,0,0,1-.138.16,1.126,1.126,0,0,1-.146.125.885.885,0,0,1-.149.091.66.66,0,0,1-.075.033l-.038.012-.038.012a.89.89,0,0,1-.659-.108l-.02-.01-.058-.028-.093-.043c-.037-.016-.078-.032-.124-.05l-.073-.028-.079-.026c-.055-.017-.115-.037-.177-.052a3.507,3.507,0,0,0-.406-.08,4.72,4.72,0,0,0-.815-.036c-.113.005-.211.011-.277.017l-.106.01a1.03,1.03,0,0,1,.111-.479,1.228,1.228,0,0,1,.327-.4q.053-.042.11-.079l.057-.036.06-.032q.061-.031.124-.056c.043-.016.087-.03.13-.042a1.205,1.205,0,0,1,.268-.04A1.16,1.16,0,0,1,958.483,1284.85Zm1.887,1.157-.065-.064-.078-.074c-.03-.028-.065-.058-.1-.091-.078-.068-.172-.14-.281-.218-.054-.037-.111-.074-.171-.112s-.122-.072-.187-.108-.13-.066-.2-.1-.134-.059-.2-.086l-.1-.038-.1-.033c-.063-.021-.125-.041-.182-.055l-.158-.041c-.048-.011-.089-.019-.124-.026l-.11-.021a1.029,1.029,0,0,0-.807.222.931.931,0,0,0-.364.7l.107-.007c.067,0,.165-.008.279-.01a4.508,4.508,0,0,1,.815.062c.07.011.141.027.208.043s.133.034.195.052.121.039.175.059.1.039.151.06l.122.055.092.047.077.042a.7.7,0,0,0,.537.1A.857.857,0,0,0,960.37,1286.007Z" transform="translate(-956.078 -1284.24)" fill="#a97c50"/>
      <path id="Path_1536" data-name="Path 1536" d="M959.184,1287.59l.107-.007c.067,0,.165-.008.279-.01a4.487,4.487,0,0,1,.815.062c.07.011.141.027.208.043s.133.034.195.052.121.039.175.059.1.039.151.06l.122.055.092.047.077.042a.7.7,0,0,0,.537.1.857.857,0,0,0,.467-.359l-.065-.064-.078-.074c-.03-.028-.065-.058-.1-.091-.078-.068-.172-.14-.281-.218-.054-.037-.111-.074-.171-.113s-.122-.072-.187-.108-.13-.067-.2-.1-.134-.059-.2-.086l-.1-.038-.1-.033c-.063-.021-.125-.041-.182-.056l-.158-.041c-.048-.011-.089-.019-.124-.027l-.11-.021a1.028,1.028,0,0,0-.807.222A.931.931,0,0,0,959.184,1287.59Z" transform="translate(-958.115 -1285.964)" fill="#c49a6c"/>
      <path id="Path_1537" data-name="Path 1537" d="M989.514,1274.376l.086.067c.054.045.131.109.218.187a4.189,4.189,0,0,1,.559.62,3.294,3.294,0,0,1,.379.673c.039.094.066.173.084.227l.026.087q-.048.027-.095.048c-.031.015-.062.029-.093.041s-.06.022-.09.031-.059.018-.087.025a.829.829,0,0,1-.322.017.776.776,0,0,1-.363-.161.853.853,0,0,1-.07-.057c-.023-.021-.046-.044-.069-.068s-.046-.049-.068-.076l-.058-.069c-.038-.044-.094-.1-.165-.177a4.064,4.064,0,0,0-.59-.486,3.753,3.753,0,0,0-.728-.377c-.054-.021-.105-.04-.151-.055l-.119-.038-.078-.024-.028-.008h0a1.06,1.06,0,0,1,.133-.219,1.2,1.2,0,0,1,.187-.183,1.271,1.271,0,0,1,.488-.228q.067-.015.135-.025c.045-.005.091-.008.136-.009a1.224,1.224,0,0,1,.136,0c.045,0,.089.011.133.019a1.106,1.106,0,0,1,.251.079A1.046,1.046,0,0,1,989.514,1274.376Zm1.232,1.818-.03-.085c-.02-.054-.05-.13-.092-.223a3.333,3.333,0,0,0-.4-.656,4.215,4.215,0,0,0-.578-.6c-.045-.039-.086-.072-.124-.1l-.1-.077c-.055-.043-.088-.066-.088-.066a1,1,0,0,0-.814-.149.989.989,0,0,0-.205.07,1.049,1.049,0,0,0-.1.049q-.046.028-.089.06a.854.854,0,0,0-.153.143.836.836,0,0,0-.113.171l.027.009.077.027c.066.024.159.056.266.1s.228.106.35.173c.061.035.123.073.184.11s.121.081.18.122a4.092,4.092,0,0,1,.576.505c.069.074.122.138.158.182.018.021.032.04.041.052l.014.019a.964.964,0,0,0,.106.119.642.642,0,0,0,.112.089.5.5,0,0,0,.117.061.468.468,0,0,0,.122.033A.839.839,0,0,0,990.747,1276.194Z" transform="translate(-985.06 -1274.14)" fill="#a97c50"/>
      <path id="Path_1538" data-name="Path 1538" d="M990.773,1275.929l.027.009.077.027c.066.024.159.056.266.1s.228.106.35.173c.061.036.123.073.184.11s.121.081.18.122a4.1,4.1,0,0,1,.576.505c.069.074.122.139.158.182.018.021.032.04.041.052l.014.019a.963.963,0,0,0,.106.119.641.641,0,0,0,.112.089.5.5,0,0,0,.117.061.46.46,0,0,0,.122.033.84.84,0,0,0,.554-.141l-.03-.085c-.02-.054-.05-.13-.092-.223a3.336,3.336,0,0,0-.4-.656,4.215,4.215,0,0,0-.578-.6c-.045-.039-.086-.072-.124-.1l-.1-.077c-.055-.043-.088-.066-.088-.066a1,1,0,0,0-.814-.149.989.989,0,0,0-.206.07c-.033.015-.065.031-.1.049s-.06.039-.089.06a.86.86,0,0,0-.153.143A.84.84,0,0,0,990.773,1275.929Z" transform="translate(-987.971 -1275.339)" fill="#c49a6c"/>
      <path id="Path_1539" data-name="Path 1539" d="M1026.013,1276.652l.051.1c.031.064.073.155.118.264a4.237,4.237,0,0,1,.234.8,5.232,5.232,0,0,1,.086.778c0,.1,0,.192.005.251s0,.095,0,.095a1.286,1.286,0,0,1-.418-.022.985.985,0,0,1-.332-.138.808.808,0,0,1-.234-.24.97.97,0,0,1-.081-.159c-.012-.029-.022-.059-.032-.091s-.019-.063-.027-.1l-.021-.087c-.015-.054-.036-.133-.069-.227a3.177,3.177,0,0,0-.33-.681,3.9,3.9,0,0,0-.514-.637c-.082-.08-.154-.15-.206-.194l-.082-.071a1.023,1.023,0,0,1,.446-.239,1.143,1.143,0,0,1,.264-.036c.045,0,.091,0,.137,0s.091.011.137.019a1.325,1.325,0,0,1,.267.079,1.108,1.108,0,0,1,.125.061,1.223,1.223,0,0,1,.118.072A1.131,1.131,0,0,1,1026.013,1276.652Zm.387,2.195s0-.009,0-.025,0-.04,0-.07c0-.059,0-.147-.01-.25a4.85,4.85,0,0,0-.105-.773,4.045,4.045,0,0,0-.262-.789c-.048-.108-.1-.2-.128-.26l-.055-.1a.845.845,0,0,0-.128-.171.94.94,0,0,0-.166-.14,1.013,1.013,0,0,0-.195-.1,1.027,1.027,0,0,0-.212-.062.948.948,0,0,0-.794.189l.08.074c.025.024.055.052.089.086l.111.116a3.787,3.787,0,0,1,.491.657,3.233,3.233,0,0,1,.3.7c.029.095.048.176.061.23l.018.088a.72.72,0,0,0,.3.483A.876.876,0,0,0,1026.4,1278.846Z" transform="translate(-1019.528 -1275.915)" fill="#a97c50"/>
      <path id="Path_1540" data-name="Path 1540" d="M1027.447,1277.481l.08.074c.025.024.055.052.089.086l.111.115a3.786,3.786,0,0,1,.491.658,3.217,3.217,0,0,1,.3.7c.029.095.048.176.061.23l.018.088a.72.72,0,0,0,.3.483.877.877,0,0,0,.6.121s0-.009,0-.025,0-.04,0-.07c0-.059,0-.147-.01-.25a4.848,4.848,0,0,0-.105-.773,4.049,4.049,0,0,0-.262-.79c-.048-.108-.1-.2-.128-.26l-.055-.1a.851.851,0,0,0-.128-.171.95.95,0,0,0-.167-.14,1,1,0,0,0-.195-.1,1.022,1.022,0,0,0-.212-.062A.948.948,0,0,0,1027.447,1277.481Z" transform="translate(-1022.633 -1277.101)" fill="#c49a6c"/>
      <path id="Path_1541" data-name="Path 1541" d="M1061.29,1291.682s0,.038.008.105.01.162.015.274c.008.226.007.521-.007.812s-.034.578-.051.793l-.028.36a1.13,1.13,0,0,1-.77-.351,1.024,1.024,0,0,1-.274-.751s0-.034,0-.094,0-.147,0-.25a5.752,5.752,0,0,0-.056-.772,4.407,4.407,0,0,0-.19-.795c-.038-.109-.074-.2-.1-.265l-.044-.1a.967.967,0,0,1,.25-.041,1.2,1.2,0,0,1,.129,0,1.267,1.267,0,0,1,.957.6,1.165,1.165,0,0,1,.105.228A1.115,1.115,0,0,1,1061.29,1291.682Zm-.165,2.229.028-.359c.016-.215.036-.5.046-.792s.007-.586-.006-.813c-.007-.113-.014-.208-.021-.275l-.011-.106a.974.974,0,0,0-.415-.676.959.959,0,0,0-.785-.161l.04.1c.025.064.057.158.091.268a4.676,4.676,0,0,1,.164.8,6.316,6.316,0,0,1,.04.776c0,.1,0,.191-.005.251s0,.095,0,.095a.824.824,0,0,0,.22.61A.9.9,0,0,0,1061.125,1293.911Z" transform="translate(-1053.209 -1289.704)" fill="#a97c50"/>
      <path id="Path_1542" data-name="Path 1542" d="M1062.778,1292.367l.04.1c.025.064.057.158.091.268a4.688,4.688,0,0,1,.164.8,6.34,6.34,0,0,1,.04.776c0,.1,0,.191-.005.251l0,.095a.825.825,0,0,0,.219.61.9.9,0,0,0,.619.279l.028-.359c.016-.215.036-.5.046-.792s.007-.586-.006-.813c-.007-.113-.014-.208-.021-.275l-.011-.105a.973.973,0,0,0-.415-.676A.959.959,0,0,0,1062.778,1292.367Z" transform="translate(-1056.026 -1291.341)" fill="#c49a6c"/>
      <path id="Path_1543" data-name="Path 1543" d="M1086.789,1315.4l-.028.361c-.017.216-.04.5-.056.792s-.023.582-.02.805c0,.112,0,.206.008.272s.005.1.005.1a1.143,1.143,0,0,1-.838-.373,1.107,1.107,0,0,1-.3-.837l.027-.362c.017-.216.04-.5.056-.792s.025-.582.022-.805c0-.111,0-.206-.007-.271l-.005-.1a1.144,1.144,0,0,1,.837.374A1.106,1.106,0,0,1,1086.789,1315.4Zm-.211,2.218s0-.038,0-.1,0-.16,0-.271c0-.223.011-.515.029-.8s.042-.576.058-.793.026-.363.026-.363a.9.9,0,0,0-.241-.673.929.929,0,0,0-.668-.3s0,.038,0,.1,0,.159,0,.271c0,.223-.012.515-.031.8s-.042.577-.058.794l-.026.363a.9.9,0,0,0,.243.674.93.93,0,0,0,.67.3Z" transform="translate(-1077.558 -1311.989)" fill="#a97c50"/>
      <path id="Path_1544" data-name="Path 1544" d="M1087.583,1316.306s0,.038,0,.1,0,.159,0,.271c0,.223-.012.515-.031.8s-.042.577-.058.794l-.026.363a.9.9,0,0,0,.243.674.93.93,0,0,0,.67.3h0s0-.038,0-.1,0-.16,0-.271c0-.223.011-.515.029-.8s.042-.576.058-.793l.026-.363a.9.9,0,0,0-.241-.673A.929.929,0,0,0,1087.583,1316.306Z" transform="translate(-1079.364 -1313.993)" fill="#c49a6c"/>
      <path id="Path_1545" data-name="Path 1545" d="M1106.2,1340.03l-.028.36c-.016.216-.038.5-.05.793s-.014.586,0,.812c0,.057.005.109.007.155l.009.12.008.105a1.1,1.1,0,0,0,.174.495,1.248,1.248,0,0,0,.171.211,1.37,1.37,0,0,0,.1.091l.055.042.058.038.041-.052a1.055,1.055,0,0,1-.322-.306,1.022,1.022,0,0,1-.1-.193.951.951,0,0,1-.052-.21l-.011-.106-.011-.12c0-.046-.007-.1-.011-.155-.014-.226-.018-.523-.009-.813s.029-.577.045-.792l.028-.359a.9.9,0,0,1,.618.278.822.822,0,0,1,.22.609s0,.093-.007.235,0,.331.01.522c0,.1.014.192.023.284s.021.177.033.25.023.135.031.178l.014.068.091-.116-.011-.058c-.007-.037-.016-.091-.025-.153-.02-.126-.038-.294-.048-.459-.005-.083-.008-.166-.01-.242s0-.149,0-.209c0-.123,0-.2,0-.2a1.021,1.021,0,0,0-.274-.749A1.129,1.129,0,0,0,1106.2,1340.03Z" transform="translate(-1096.984 -1336.415)" fill="#a97c50"/>
      <path id="Path_1546" data-name="Path 1546" d="M1109.084,1343.02a.822.822,0,0,0-.22-.609.9.9,0,0,0-.618-.278s-.011.143-.028.359-.036.5-.045.792-.006.587.009.813l.011.155.011.12.011.106a.96.96,0,0,0,.052.21,1.022,1.022,0,0,0,.1.193,1.054,1.054,0,0,0,.322.306l.5-.632-.014-.068c-.008-.043-.019-.105-.031-.178s-.023-.16-.033-.25-.018-.187-.023-.284c-.012-.191-.012-.382-.01-.522S1109.084,1343.02,1109.084,1343.02Z" transform="translate(-1098.926 -1338.403)" fill="#c49a6c"/>
      <path id="Path_1547" data-name="Path 1547" d="M1126.816,1363.583a1,1,0,0,1,.2-.009.858.858,0,0,1,.181.028.709.709,0,0,1,.158.06.673.673,0,0,1,.133.089l.041-.052a.93.93,0,0,0-.354-.177,1.21,1.21,0,0,0-.221-.036,1.282,1.282,0,0,0-.246,0h0v.047c0,.03,0,.073,0,.125,0,.1.006.244.018.384.005.071.013.141.021.207s.017.129.025.182c.016.108.032.179.032.179l.091-.115-.007-.04c0-.025-.01-.062-.017-.106s-.014-.094-.02-.148-.012-.112-.017-.169c-.009-.116-.015-.228-.017-.314,0-.042,0-.078,0-.1Z" transform="translate(-1116.451 -1358.581)" fill="#a97c50"/>
      <path id="Path_1548" data-name="Path 1548" d="M1128.651,1365.134v.039c0,.025,0,.06,0,.1,0,.086.008.2.017.314.005.057.011.115.017.169s.014.1.02.148.012.081.017.106l.007.04.591-.749a.665.665,0,0,0-.133-.089.712.712,0,0,0-.158-.06.867.867,0,0,0-.181-.028A1.007,1.007,0,0,0,1128.651,1365.134Z" transform="translate(-1118.285 -1360.132)" fill="#c49a6c"/>
    </g>
    <g id="Group_97" data-name="Group 97" transform="translate(134.923 1273.708)">
      <path id="Path_1549" data-name="Path 1549" d="M1117.7,1385.092a.949.949,0,0,1-.729-.121l-.041.052c.035.022.071.042.108.061s.076.035.114.05a1.181,1.181,0,0,0,.237.065,1.048,1.048,0,0,0,.477-.029s-.028-.06-.065-.148c-.018-.044-.038-.1-.059-.152s-.041-.115-.06-.174c-.039-.118-.068-.237-.09-.324s-.031-.147-.031-.147l-.091.115.026.117c.017.07.042.163.07.257s.061.189.089.258Z" transform="translate(-1116.931 -1378.423)" fill="#a97c50"/>
      <path id="Path_1550" data-name="Path 1550" d="M1118.415,1387.082l-.047-.118c-.028-.069-.059-.166-.089-.258s-.054-.187-.07-.257l-.026-.117-.5.63A.948.948,0,0,0,1118.415,1387.082Z" transform="translate(-1117.645 -1380.414)" fill="#c49a6c"/>
      <path id="Path_1551" data-name="Path 1551" d="M1129.167,1367.441l-.042.052a.75.75,0,0,1,.231.426l0,.023c0,.015.008.037.014.064.013.054.032.136.062.23a3.246,3.246,0,0,0,.309.694,3.771,3.771,0,0,0,.5.653c.04.042.077.081.111.115l.089.085.081.074a.953.953,0,0,1-.792.194c-.036-.007-.072-.015-.108-.024s-.07-.023-.1-.036-.068-.029-.1-.045-.064-.037-.095-.057-.06-.042-.088-.064a1.019,1.019,0,0,1-.079-.074.852.852,0,0,1-.13-.17l-.033-.057c-.021-.036-.05-.087-.081-.151s-.068-.135-.1-.215c-.017-.039-.034-.08-.051-.121s-.032-.084-.047-.126-.03-.083-.043-.125l-.037-.122c-.024-.078-.041-.152-.056-.214s-.025-.114-.032-.151l-.011-.057-.091.116.01.049c.007.031.016.077.029.13s.029.117.049.185.043.14.068.212.053.144.081.213.057.13.082.185.049.1.065.13l.026.05a1.065,1.065,0,0,0,.154.218,1.254,1.254,0,0,0,.206.179c.038.026.078.049.119.072l.062.032.064.027c.043.017.087.033.132.046a1.367,1.367,0,0,0,.135.031,1.251,1.251,0,0,0,.537-.018,1.141,1.141,0,0,0,.24-.095,1,1,0,0,0,.2-.148l-.082-.071c-.052-.044-.124-.112-.207-.193a3.883,3.883,0,0,1-.519-.633c-.039-.062-.075-.122-.109-.181s-.065-.121-.093-.178-.052-.116-.075-.168-.041-.105-.057-.152l-.023-.067-.019-.061c-.011-.038-.021-.071-.028-.1s-.013-.049-.016-.064l-.005-.023A.943.943,0,0,0,1129.167,1367.441Z" transform="translate(-1127.81 -1362.559)" fill="#a97c50"/>
      <path id="Path_1552" data-name="Path 1552" d="M1130.6,1370.488a.852.852,0,0,0,.13.17,1.065,1.065,0,0,0,.079.074c.028.023.058.044.088.064s.062.039.095.057.067.031.1.045.069.026.1.036.072.018.108.024a.953.953,0,0,0,.792-.194l-.081-.074-.089-.085c-.034-.034-.072-.073-.111-.115a3.765,3.765,0,0,1-.5-.653,3.25,3.25,0,0,1-.309-.694c-.03-.094-.049-.176-.062-.23-.007-.027-.011-.049-.014-.064l0-.023a.75.75,0,0,0-.231-.426l-.593.75.011.057c.007.036.017.089.032.151s.032.137.056.214l.037.122c.013.042.028.083.043.125s.031.085.047.126l.051.121c.034.08.07.151.1.215s.061.115.081.151Z" transform="translate(-1129.382 -1363.464)" fill="#c49a6c"/>
      <path id="Path_1553" data-name="Path 1553" d="M1149.349,1377.508s.02.026.058.069.095.1.167.175a4.021,4.021,0,0,0,.593.481c.06.038.122.078.184.114s.125.069.188.1a3.828,3.828,0,0,0,.358.156c.11.043.2.07.271.091s.106.03.106.03a1.043,1.043,0,0,1-.316.4,1.31,1.31,0,0,1-.229.142,1.4,1.4,0,0,1-.258.09,1.294,1.294,0,0,1-.271.036c-.045,0-.091,0-.136,0a1.273,1.273,0,0,1-.133-.019c-.044-.008-.087-.018-.129-.031s-.083-.029-.123-.047a1.2,1.2,0,0,1-.116-.058,1.171,1.171,0,0,1-.108-.074l-.086-.067c-.054-.042-.131-.109-.219-.185a4.187,4.187,0,0,1-.563-.615c-.043-.06-.085-.118-.123-.178s-.073-.119-.106-.176-.061-.114-.087-.167-.048-.1-.068-.151-.037-.089-.051-.128-.026-.071-.035-.1-.016-.049-.02-.064l-.007-.023a1.78,1.78,0,0,1,.187-.09,1.35,1.35,0,0,1,.177-.058l.084-.017a.677.677,0,0,1,.081-.009.725.725,0,0,1,.079,0c.026,0,.051,0,.077.007a.73.73,0,0,1,.149.038.578.578,0,0,1,.072.033.635.635,0,0,1,.072.039,1.148,1.148,0,0,1,.141.107A1.476,1.476,0,0,1,1149.349,1377.508Zm1.757,1.294-.028-.008-.077-.026-.118-.043-.071-.027-.078-.033c-.054-.023-.111-.048-.17-.077s-.12-.061-.182-.094a3.906,3.906,0,0,1-.365-.23c-.059-.04-.116-.085-.17-.128s-.106-.086-.155-.13-.095-.085-.137-.126-.081-.081-.116-.118-.066-.07-.092-.1l-.067-.079c-.037-.043-.056-.07-.056-.07a.72.72,0,0,0-.46-.3.838.838,0,0,0-.553.146s.01.031.03.085.051.131.094.222c.022.045.046.095.074.148s.06.105.094.162a3.486,3.486,0,0,0,.242.344,4.329,4.329,0,0,0,.582.594c.089.075.167.135.223.178.028.022.05.037.065.048l.023.017a1,1,0,0,0,.816.144,1.05,1.05,0,0,0,.389-.181.853.853,0,0,0,.152-.144A.786.786,0,0,0,1151.105,1378.8Z" transform="translate(-1146.38 -1371.726)" fill="#a97c50"/>
      <path id="Path_1554" data-name="Path 1554" d="M1150.272,1378.5s.01.031.03.085.051.131.094.222c.022.045.046.095.074.148s.059.105.094.162a3.473,3.473,0,0,0,.242.344,4.33,4.33,0,0,0,.582.594c.089.075.167.135.223.178.028.022.05.036.065.048l.023.017a1,1,0,0,0,.816.144,1.049,1.049,0,0,0,.389-.181.855.855,0,0,0,.152-.144.785.785,0,0,0,.112-.172l-.028-.008-.077-.026-.118-.043-.071-.027-.078-.033c-.054-.023-.111-.048-.17-.077s-.12-.061-.182-.094a3.892,3.892,0,0,1-.365-.23c-.059-.04-.116-.085-.17-.128s-.106-.086-.155-.13-.095-.085-.137-.126-.081-.081-.116-.118-.066-.07-.092-.1l-.067-.079c-.037-.043-.056-.07-.056-.07a.72.72,0,0,0-.46-.3A.837.837,0,0,0,1150.272,1378.5Z" transform="translate(-1148.443 -1372.865)" fill="#c49a6c"/>
      <path id="Path_1555" data-name="Path 1555" d="M1174.579,1378.066l.079.038c.025.012.057.027.094.043l.125.05c.047.019.1.035.153.052l.086.026.091.024.1.023.1.02.1.019.106.015a4.761,4.761,0,0,0,.814.032c.114-.005.21-.012.277-.018l.106-.01a1.039,1.039,0,0,1-.025.245,1.071,1.071,0,0,1-.084.235,1.13,1.13,0,0,1-.138.216,1.254,1.254,0,0,1-.186.188,1.239,1.239,0,0,1-1.013.268l-.029-.006-.081-.019c-.069-.017-.167-.04-.281-.077a3.758,3.758,0,0,1-.766-.336,3.886,3.886,0,0,1-.628-.458c-.077-.07-.137-.126-.178-.17l-.064-.067a1.6,1.6,0,0,1,.137-.161c.024-.024.048-.047.072-.067l.073-.059a.913.913,0,0,1,.3-.151A.9.9,0,0,1,1174.579,1378.066Zm2.115.442-.107.008-.121.007-.157,0a4.5,4.5,0,0,1-.815-.057l-.105-.019-.1-.023-.1-.024-.1-.027c-.062-.018-.12-.037-.176-.057s-.1-.038-.151-.059q-.138-.06-.215-.1l-.078-.042a.694.694,0,0,0-.537-.092.862.862,0,0,0-.464.361l.066.064c.021.02.047.046.078.073l.1.091a3.656,3.656,0,0,0,.642.435c.064.034.131.066.2.1s.134.057.2.084.132.048.2.069l.094.029.089.024c.057.015.111.03.159.04l.124.026.082.016.029,0a1.023,1.023,0,0,0,.8-.227A.935.935,0,0,0,1176.693,1378.509Z" transform="translate(-1170.243 -1372.48)" fill="#a97c50"/>
      <path id="Path_1556" data-name="Path 1556" d="M1175.736,1379.584l.066.064c.021.02.047.046.078.073l.1.091a3.636,3.636,0,0,0,.641.435c.065.034.131.066.2.1s.134.057.2.084.132.048.2.069l.094.03.089.024c.057.015.111.03.158.04l.124.026.082.016.029,0a1.023,1.023,0,0,0,.8-.227.934.934,0,0,0,.359-.706l-.107.008-.121.007-.157,0a4.5,4.5,0,0,1-.815-.057l-.105-.019-.1-.023-.1-.024-.1-.027c-.062-.018-.12-.037-.176-.057s-.1-.038-.151-.059c-.092-.04-.164-.074-.215-.1l-.078-.042a.7.7,0,0,0-.537-.092A.863.863,0,0,0,1175.736,1379.584Z" transform="translate(-1172.51 -1373.675)" fill="#c49a6c"/>
      <path id="Path_1557" data-name="Path 1557" d="M1200.023,1360.681s.034,0,.093,0,.145,0,.248-.006a7.16,7.16,0,0,0,.775-.083c.286-.045.574-.1.789-.151l.359-.079a1.1,1.1,0,0,1-.177.882,1.186,1.186,0,0,1-.806.5l-.106.013c-.067.008-.164.018-.278.028a5.3,5.3,0,0,1-.826,0l-.108-.01-.107-.013-.1-.015-.1-.018-.094-.019-.09-.022c-.058-.015-.111-.028-.16-.044l-.131-.043c-.038-.014-.072-.027-.1-.037l-.083-.034a1.08,1.08,0,0,1,.323-.64A.985.985,0,0,1,1200.023,1360.681Zm2.179-.183-.1.022-.261.056c-.216.045-.506.1-.792.143a6.483,6.483,0,0,1-.776.068c-.1,0-.188,0-.247,0s-.092,0-.092,0a.764.764,0,0,0-.552.165.822.822,0,0,0-.254.523l.084.03.1.034.132.037c.05.014.1.026.161.038l.09.018.1.015c.065.01.134.02.2.026s.143.013.215.016a5.65,5.65,0,0,0,.823-.026c.113-.012.21-.023.276-.033l.105-.015a.963.963,0,0,0,.64-.4A.9.9,0,0,0,1202.2,1360.5Z" transform="translate(-1194.516 -1355.87)" fill="#a97c50"/>
      <path id="Path_1558" data-name="Path 1558" d="M1201.01,1363.786l.084.03.1.033.132.037c.05.014.1.026.161.038l.09.018.1.015c.065.01.134.02.2.026s.143.013.215.016a5.652,5.652,0,0,0,.823-.026c.113-.012.21-.023.276-.033l.105-.015a.964.964,0,0,0,.641-.4.9.9,0,0,0,.146-.71l-.1.022-.261.056c-.216.045-.506.1-.792.143a6.536,6.536,0,0,1-.776.068c-.1,0-.188,0-.247,0s-.092,0-.092,0a.765.765,0,0,0-.552.165A.822.822,0,0,0,1201.01,1363.786Z" transform="translate(-1196.397 -1358.186)" fill="#c49a6c"/>
      <path id="Path_1559" data-name="Path 1559" d="M1221.457,1336.085s.14-.028.352-.074l.78-.172c.284-.062.567-.118.778-.153s.349-.053.349-.053a1.081,1.081,0,0,1-.132.818,1.114,1.114,0,0,1-.7.49l-.358.081c-.215.048-.5.11-.789.161s-.571.088-.781.1-.346.018-.346.018a1.072,1.072,0,0,1,.16-.779,1.025,1.025,0,0,1,.285-.278A1.14,1.14,0,0,1,1221.457,1336.085Zm2.176-.331-.1.015c-.061.009-.148.024-.254.043-.211.038-.494.1-.778.159s-.567.126-.778.171-.351.071-.351.071a.858.858,0,0,0-.554.352.85.85,0,0,0-.126.632s.137,0,.347-.026.494-.062.78-.117.573-.118.787-.165l.356-.08a.891.891,0,0,0,.562-.393A.866.866,0,0,0,1223.633,1335.754Z" transform="translate(-1214.907 -1332.496)" fill="#a97c50"/>
      <path id="Path_1560" data-name="Path 1560" d="M1222.218,1339.279s.137,0,.347-.026.494-.062.78-.117.572-.118.786-.165l.356-.08a.891.891,0,0,0,.562-.393.866.866,0,0,0,.1-.661l-.1.015c-.061.009-.148.024-.254.043-.211.038-.494.1-.777.159s-.567.126-.778.171-.351.071-.351.071a.858.858,0,0,0-.554.352A.848.848,0,0,0,1222.218,1339.279Z" transform="translate(-1216.428 -1334.578)" fill="#c49a6c"/>
      <path id="Path_1561" data-name="Path 1561" d="M1240.282,1315.046l.1-.02c.066-.012.157-.03.269-.049a7.727,7.727,0,0,1,.811-.1,4.627,4.627,0,0,1,.78.014c.051,0,.1.011.138.018l.1.016.067.013.023,0a1.066,1.066,0,0,1-.237.707.913.913,0,0,1-.288.219,1.149,1.149,0,0,1-.4.112s-.137.013-.347.044-.491.082-.775.142-.568.124-.78.171l-.353.077a1.093,1.093,0,0,1,.137-.858A1.155,1.155,0,0,1,1240.282,1315.046Zm2.2-.014-.091-.015c-.057-.007-.142-.019-.245-.026a4.969,4.969,0,0,0-.78.008c-.291.024-.586.07-.807.11-.111.02-.2.038-.267.051l-.1.021a.931.931,0,0,0-.595.413.885.885,0,0,0-.112.692l.354-.078c.213-.047.5-.112.782-.169s.566-.106.776-.133.346-.037.346-.037a.806.806,0,0,0,.553-.261.828.828,0,0,0,.187-.576Z" transform="translate(-1232.649 -1312.873)" fill="#a97c50"/>
      <path id="Path_1562" data-name="Path 1562" d="M1241,1318.177l.354-.078c.213-.047.5-.112.782-.169s.567-.106.776-.133.346-.037.346-.037a.807.807,0,0,0,.554-.261.829.829,0,0,0,.186-.576h0l-.091-.015c-.058-.007-.142-.019-.245-.026a4.955,4.955,0,0,0-.78.008c-.291.024-.586.07-.807.11-.111.02-.2.038-.267.051l-.1.021a.931.931,0,0,0-.595.413A.884.884,0,0,0,1241,1318.177Z" transform="translate(-1234.165 -1314.762)" fill="#c49a6c"/>
      <path id="Path_1563" data-name="Path 1563" d="M1259.774,1294.764l.1-.018c.066-.011.157-.027.269-.043a6.7,6.7,0,0,1,.806-.072,4.143,4.143,0,0,1,.766.048c.049.007.095.016.134.025l.1.022.064.016.023.006q.053.015.1.024c.034.007.067.013.1.016a1.008,1.008,0,0,0,.183,0,.72.72,0,0,0,.312-.091l-.022-.063a.689.689,0,0,1-.577.034l-.022-.007-.063-.019-.1-.026-.063-.015-.07-.014a3.936,3.936,0,0,0-.763-.073,6.182,6.182,0,0,0-.81.055c-.112.014-.2.029-.271.039l-.1.017a.916.916,0,0,1,.244-.722,1,1,0,0,1,.731-.334h.16l.111.005a4.41,4.41,0,0,1,.574.067l.15.032.072.017.07.019.129.037.113.038.093.034.071.029.061.026-.048-.139-.054-.022-.063-.025-.083-.029c-.061-.021-.135-.045-.215-.066l-.125-.032c-.043-.01-.087-.019-.131-.028s-.09-.018-.134-.025l-.132-.019c-.087-.013-.167-.019-.238-.025s-.13-.008-.171-.01l-.066,0a1.1,1.1,0,0,0-.26.023,1.209,1.209,0,0,0-.248.082,1.277,1.277,0,0,0-.415.3A1.11,1.11,0,0,0,1259.774,1294.764Z" transform="translate(-1251.928 -1292.634)" fill="#a97c50"/>
      <path id="Path_1564" data-name="Path 1564" d="M1262.63,1295.6a1,1,0,0,0-.731.334.915.915,0,0,0-.244.722l.1-.017c.066-.01.159-.025.271-.039a6.206,6.206,0,0,1,.81-.054,3.925,3.925,0,0,1,.763.073l.07.014.063.015.1.026.063.019.022.007a.689.689,0,0,0,.577-.034l-.263-.761-.061-.026-.071-.029-.093-.034-.113-.038-.129-.037-.07-.019-.072-.017-.15-.032a4.416,4.416,0,0,0-.574-.067l-.111-.005-.085,0Z" transform="translate(-1253.709 -1294.659)" fill="#c49a6c"/>
      <path id="Path_1565" data-name="Path 1565" d="M1286.471,1279.184a.879.879,0,0,1,.24-.409,1.016,1.016,0,0,1,.2-.152c.036-.021.074-.041.113-.059s.079-.032.12-.045l-.022-.063a1.282,1.282,0,0,0-.524.326,1.3,1.3,0,0,0-.1.114,1.115,1.115,0,0,0-.079.125.969.969,0,0,0-.1.269h0l.055,0c.035,0,.083.007.142.015l.2.028c.072.013.148.028.221.044s.148.037.214.056.129.041.181.058.094.035.124.046l.046.019-.048-.139-.039-.015c-.025-.009-.061-.023-.1-.038-.087-.028-.207-.066-.33-.095l-.093-.022-.091-.018c-.059-.011-.116-.021-.164-.028C1286.538,1279.191,1286.471,1279.184,1286.471,1279.184Z" transform="translate(-1277.03 -1278.455)" fill="#a97c50"/>
      <path id="Path_1566" data-name="Path 1566" d="M1289.028,1280.274s.067.007.163.021c.048.007.105.017.164.028l.091.018.093.022c.123.028.244.067.33.095.044.015.08.029.1.038l.039.015-.312-.9c-.041.013-.081.028-.12.044s-.077.038-.113.059a1.014,1.014,0,0,0-.2.152A.877.877,0,0,0,1289.028,1280.274Z" transform="translate(-1279.586 -1279.546)" fill="#c49a6c"/>
    </g>
    <g id="Group_98" data-name="Group 98" transform="translate(145.015 1273.447)">
      <path id="Path_1567" data-name="Path 1567" d="M1308.535,1299.147a.879.879,0,0,1-.336.417l.022.063a.9.9,0,0,0,.235-.2,1.243,1.243,0,0,0,.106-.143,1.649,1.649,0,0,0,.1-.171s-.042-.033-.108-.081c-.033-.024-.072-.05-.115-.078l-.067-.043-.071-.042c-.048-.027-.1-.056-.145-.08l-.131-.064c-.04-.019-.073-.033-.1-.043l-.037-.015.048.139.028.012c.018.008.043.018.073.033l.1.051c.036.019.074.038.112.061.075.044.146.087.2.124Z" transform="translate(-1307.505 -1297.297)" fill="#a97c50"/>
      <path id="Path_1568" data-name="Path 1568" d="M1309.365,1301.545l-.086-.06c-.053-.037-.124-.08-.2-.124-.038-.022-.075-.042-.112-.061l-.1-.051c-.03-.015-.055-.025-.073-.033l-.028-.012.262.758A.879.879,0,0,0,1309.365,1301.545Z" transform="translate(-1308.335 -1299.694)" fill="#c49a6c"/>
      <path id="Path_1569" data-name="Path 1569" d="M1300.891,1277.328l.022.063a1,1,0,0,1,.713.035l.026.012c.017.008.042.019.074.036l.113.058c.043.023.09.048.141.079a4.291,4.291,0,0,1,.672.488c.055.049.108.1.158.147s.1.1.143.147c.089.1.166.19.226.273s.106.151.137.2l.035.056.012.02a.823.823,0,0,1-.526.25.737.737,0,0,1-.525-.216l-.039-.036c-.025-.023-.061-.053-.106-.091l-.073-.06c-.026-.021-.054-.042-.084-.063l-.094-.067c-.032-.023-.065-.043-.1-.065l-.1-.064-.1-.057-.1-.052-.091-.043c-.057-.026-.107-.049-.141-.062l-.055-.021.048.139.045.019c.028.011.069.03.117.053a3.3,3.3,0,0,1,.331.181c.058.037.113.074.163.109s.1.072.135.1.07.057.091.075l.034.029q.04.034.079.063c.027.021.053.039.08.056a.905.905,0,0,0,.08.044.806.806,0,0,0,.082.037c.027.011.054.019.082.027a.624.624,0,0,0,.082.019.831.831,0,0,0,.162.011,1.086,1.086,0,0,0,.652-.3l-.044-.078c-.014-.025-.032-.056-.053-.091s-.047-.072-.076-.114a3.585,3.585,0,0,0-.507-.586,4.609,4.609,0,0,0-.655-.511c-.1-.062-.186-.112-.248-.147l-.1-.051a1.1,1.1,0,0,0-.444-.118,1.215,1.215,0,0,0-.238.01A1.255,1.255,0,0,0,1300.891,1277.328Z" transform="translate(-1300.891 -1277.067)" fill="#a97c50"/>
      <path id="Path_1570" data-name="Path 1570" d="M1302.691,1280.347a.737.737,0,0,0,.525.216.823.823,0,0,0,.526-.25l-.012-.02-.035-.056c-.031-.049-.076-.12-.137-.2s-.137-.174-.226-.273c-.045-.047-.093-.1-.143-.147s-.1-.1-.158-.147a4.294,4.294,0,0,0-.672-.488c-.051-.031-.1-.056-.141-.079l-.113-.058c-.032-.016-.057-.028-.074-.036l-.027-.012a1,1,0,0,0-.713-.035l.313.9.054.021c.034.013.084.036.141.062l.091.043.1.053.1.057.1.064c.034.022.067.042.1.065l.094.067c.03.022.058.042.084.063l.073.06c.045.038.08.067.106.091Z" transform="translate(-1301.268 -1278.438)" fill="#c49a6c"/>
      <path id="Path_1571" data-name="Path 1571" d="M1323.189,1274.116s.026.031.07.088.105.135.171.236a3.811,3.811,0,0,1,.206.341c.033.064.066.129.1.2s.06.135.086.2a3.788,3.788,0,0,1,.2.75c.017.1.027.186.034.244l.009.093q-.054.014-.106.023t-.1.016c-.033,0-.066.005-.1.007s-.064,0-.094,0a.993.993,0,0,1-.173-.021.764.764,0,0,1-.079-.02c-.026-.008-.05-.019-.075-.028a.894.894,0,0,1-.45-.492l-.038-.079c-.012-.025-.027-.057-.047-.092s-.041-.074-.067-.117-.055-.089-.087-.137-.068-.1-.107-.15-.081-.106-.126-.157-.093-.105-.143-.158a4.551,4.551,0,0,0-.619-.532c-.094-.065-.176-.121-.235-.156l-.093-.056h0a.979.979,0,0,1,.178-.179,1.081,1.081,0,0,1,.218-.133,1.162,1.162,0,0,1,.246-.083,1.217,1.217,0,0,1,.264-.03c.045,0,.09,0,.135,0a1.289,1.289,0,0,1,.135.021,1.263,1.263,0,0,1,.132.033c.043.014.086.03.128.048A1.146,1.146,0,0,1,1323.189,1274.116Zm.766,2.077-.011-.092c-.008-.058-.021-.141-.04-.242a3.645,3.645,0,0,0-.229-.74c-.029-.067-.061-.133-.094-.2s-.069-.129-.1-.192-.074-.12-.11-.177-.073-.108-.109-.156-.068-.093-.1-.13l-.081-.1-.054-.063-.02-.022a1.074,1.074,0,0,0-.875-.319c-.035,0-.07.01-.1.018a.907.907,0,0,0-.2.064.956.956,0,0,0-.176.1.9.9,0,0,0-.147.14l.091.059c.057.037.137.095.229.164l.071.054.074.061c.05.042.1.085.154.133s.1.1.155.147.1.105.149.158l.036.04.035.042.067.082c.043.053.083.109.12.162l.053.078.048.077c.03.05.058.1.082.14.047.089.082.16.1.213l.034.081a.694.694,0,0,0,.361.406A.865.865,0,0,0,1323.954,1276.193Z" transform="translate(-1320.205 -1273.693)" fill="#a97c50"/>
      <path id="Path_1572" data-name="Path 1572" d="M1324.575,1275.222l.091.059c.057.037.137.095.229.164l.071.054.074.061c.05.042.1.085.153.133s.1.1.155.147.1.105.149.158l.036.04.035.041.067.082c.043.053.083.109.12.162l.053.078.048.077c.03.05.058.1.081.14.047.089.082.16.1.213l.034.081a.694.694,0,0,0,.361.406.866.866,0,0,0,.588.008l-.011-.092c-.008-.058-.021-.141-.04-.242a3.651,3.651,0,0,0-.229-.74c-.029-.067-.061-.133-.094-.2s-.069-.129-.1-.191-.074-.12-.11-.177-.073-.108-.109-.156-.068-.093-.1-.13l-.081-.1-.054-.063-.02-.022a1.074,1.074,0,0,0-.875-.319c-.035,0-.07.01-.1.018a.907.907,0,0,0-.2.064.961.961,0,0,0-.176.1A.885.885,0,0,0,1324.575,1275.222Z" transform="translate(-1323.276 -1274.828)" fill="#c49a6c"/>
      <path id="Path_1573" data-name="Path 1573" d="M1359.627,1283.489l.025.106c.015.067.034.163.053.277a6.247,6.247,0,0,1,.075.818c.009.291,0,.577-.012.79-.005.106-.011.195-.015.257l-.007.1a1.2,1.2,0,0,1-.224-.022,1.114,1.114,0,0,1-.2-.059,1.046,1.046,0,0,1-.333-.206.976.976,0,0,1-.305-.689l-.005-.092c0-.057-.011-.142-.023-.242a3.952,3.952,0,0,0-.162-.747c-.022-.068-.047-.136-.073-.2s-.055-.132-.084-.2a3.792,3.792,0,0,0-.182-.345c-.059-.1-.115-.182-.154-.24-.02-.029-.036-.052-.047-.066l-.017-.023h0a1.041,1.041,0,0,1,.5-.118,1.285,1.285,0,0,1,.267.032,1.329,1.329,0,0,1,.258.091,1.3,1.3,0,0,1,.432.326A1.118,1.118,0,0,1,1359.627,1283.489Zm.016,2.236.006-.1c0-.062.009-.15.013-.256.009-.212.015-.5,0-.789a5.738,5.738,0,0,0-.1-.816c-.022-.113-.045-.209-.061-.276l-.028-.105a1.02,1.02,0,0,0-.033-.1,1,1,0,0,0-.046-.094c-.017-.031-.036-.06-.056-.09s-.043-.056-.067-.083-.049-.052-.075-.077-.055-.047-.084-.068a1.021,1.021,0,0,0-.09-.061q-.047-.028-.1-.051a1.022,1.022,0,0,0-.2-.073.96.96,0,0,0-.212-.029.852.852,0,0,0-.209.018.777.777,0,0,0-.195.065l.016.024c.01.016.026.038.045.068l.066.107.039.065c.013.023.027.048.041.074.027.052.057.106.085.166s.056.122.083.187.052.133.076.2.045.139.065.207a4.2,4.2,0,0,1,.14.755c.01.1.014.187.018.244l0,.093a.78.78,0,0,0,.245.563A.889.889,0,0,0,1359.643,1285.725Z" transform="translate(-1354.803 -1282.092)" fill="#a97c50"/>
      <path id="Path_1574" data-name="Path 1574" d="M1361.183,1284.149l.016.024c.01.016.026.038.044.068l.066.107.039.065.04.074c.027.052.057.106.085.166s.056.122.083.187.052.133.076.2.045.139.065.207a4.2,4.2,0,0,1,.14.755c.01.1.014.187.018.244l0,.093a.779.779,0,0,0,.245.563.889.889,0,0,0,.612.227l.006-.1c0-.062.009-.15.013-.256.009-.212.015-.5,0-.789a5.737,5.737,0,0,0-.1-.816c-.022-.113-.045-.209-.061-.276l-.028-.105a.989.989,0,0,0-.033-.1.961.961,0,0,0-.046-.094q-.025-.046-.056-.09a1.046,1.046,0,0,0-.067-.083q-.036-.04-.075-.077c-.027-.024-.055-.047-.084-.068a1.047,1.047,0,0,0-.09-.061q-.047-.028-.1-.051a1.022,1.022,0,0,0-.2-.073.967.967,0,0,0-.212-.029.858.858,0,0,0-.209.018A.779.779,0,0,0,1361.183,1284.149Z" transform="translate(-1357.875 -1283.496)" fill="#c49a6c"/>
      <path id="Path_1575" data-name="Path 1575" d="M1391,1304.267l0,.1c0,.065-.006.157-.012.267-.011.22-.032.51-.054.8s-.043.579-.054.8-.015.369-.015.369a1.136,1.136,0,0,1-.8-.383,1.076,1.076,0,0,1-.269-.807l.008-.1c0-.062.011-.151.018-.257.014-.213.028-.5.027-.786a6.845,6.845,0,0,0-.047-.809c-.014-.112-.029-.207-.04-.274l-.019-.1a1.154,1.154,0,0,1,.9.326A1.141,1.141,0,0,1,1391,1304.267Zm-.248,2.218s0-.037,0-.1.008-.156.014-.266c.013-.219.035-.509.057-.8s.041-.58.051-.8c.005-.11.008-.2.009-.268l0-.1a.932.932,0,0,0-.3-.686.944.944,0,0,0-.715-.267l.016.1c.01.066.021.162.033.274a7.66,7.66,0,0,1,.031.81c0,.289-.021.574-.035.787l-.027.355a.87.87,0,0,0,.217.652A.915.915,0,0,0,1390.754,1306.485Z" transform="translate(-1384.868 -1301.469)" fill="#a97c50"/>
      <path id="Path_1576" data-name="Path 1576" d="M1392.251,1305.082l.016.1c.01.066.021.162.033.274a7.662,7.662,0,0,1,.031.81c0,.289-.021.574-.035.787s-.027.355-.027.355a.87.87,0,0,0,.217.652.915.915,0,0,0,.639.308s0-.037,0-.1.008-.156.014-.266c.013-.219.035-.509.057-.8s.041-.58.051-.8c.005-.11.008-.2.009-.268l0-.1a.933.933,0,0,0-.3-.686A.943.943,0,0,0,1392.251,1305.082Z" transform="translate(-1387.239 -1303.357)" fill="#c49a6c"/>
      <path id="Path_1577" data-name="Path 1577" d="M1411.312,1329.743s-.011.14-.023.352-.021.494-.013.783a6.1,6.1,0,0,0,.075.809l.027.154.026.119.024.1a1.188,1.188,0,0,1-1.305-1.159s0-.151.009-.372.027-.513.048-.8.044-.578.058-.8.02-.367.02-.367a1.135,1.135,0,0,1,.789.38,1.07,1.07,0,0,1,.213.365A1.082,1.082,0,0,1,1411.312,1329.743Zm-.028,2.22-.02-.105-.022-.119c-.007-.046-.015-.1-.023-.155a6.546,6.546,0,0,1-.056-.81c0-.289.01-.573.023-.785l.017-.257.007-.1a.86.86,0,0,0-.215-.644.912.912,0,0,0-.632-.3s-.008.147-.023.365l-.059.8c-.021.29-.037.582-.042.8s0,.374,0,.374a.941.941,0,0,0,.318.688A.951.951,0,0,0,1411.284,1331.963Z" transform="translate(-1404.13 -1325.557)" fill="#a97c50"/>
      <path id="Path_1578" data-name="Path 1578" d="M1412.325,1330.73s-.008.147-.023.365l-.059.8c-.021.29-.037.582-.042.8s0,.374,0,.374a.94.94,0,0,0,.318.687.951.951,0,0,0,.73.25l-.02-.105-.022-.12c-.007-.046-.015-.1-.023-.155a6.57,6.57,0,0,1-.056-.81c0-.289.01-.573.023-.785.007-.106.013-.195.017-.257l.007-.1a.859.859,0,0,0-.214-.644A.911.911,0,0,0,1412.325,1330.73Z" transform="translate(-1406.091 -1327.601)" fill="#c49a6c"/>
      <path id="Path_1579" data-name="Path 1579" d="M1432.244,1354.607l0,.024c0,.015,0,.038.007.066s.007.064.012.1.012.085.02.135a3.61,3.61,0,0,0,.58,1.462c.066.1.125.175.168.23l.069.085a1.058,1.058,0,0,1-.113.06.98.98,0,0,1-.12.044,1.223,1.223,0,0,1-.127.03,1.186,1.186,0,0,1-.131.014,1.277,1.277,0,0,1-.535-.092,1.314,1.314,0,0,1-.453-.306,1.155,1.155,0,0,1-.162-.212,1.108,1.108,0,0,1-.1-.239l-.03-.106c-.009-.034-.02-.074-.031-.12s-.023-.1-.035-.156a5.629,5.629,0,0,1-.106-.817c-.017-.291-.013-.576-.005-.788s.018-.353.018-.353a1.129,1.129,0,0,1,.758.264A.956.956,0,0,1,1432.244,1354.607Zm.678,2.072-.066-.088c-.042-.055-.1-.14-.16-.237a3.918,3.918,0,0,1-.188-.344c-.031-.062-.06-.13-.088-.2s-.053-.135-.077-.2a3.883,3.883,0,0,1-.175-.745c-.007-.051-.012-.1-.017-.137l-.01-.106c0-.058-.007-.091-.007-.091a.766.766,0,0,0-.255-.547.888.888,0,0,0-.611-.207s0,.035,0,.1-.007.149-.01.255a7.557,7.557,0,0,0,.019.786,5.262,5.262,0,0,0,.128.814c.014.056.028.108.041.155s.025.086.036.119l.033.105a.953.953,0,0,0,.091.189,1.02,1.02,0,0,0,.133.167,1.126,1.126,0,0,0,.168.138,1.241,1.241,0,0,0,.194.1,1.263,1.263,0,0,0,.21.061,1.2,1.2,0,0,0,.215.017,1,1,0,0,0,.208-.03.833.833,0,0,0,.191-.077Z" transform="translate(-1423.997 -1349.287)" fill="#a97c50"/>
      <path id="Path_1580" data-name="Path 1580" d="M1433.161,1355.594l-.005.1c0,.062-.007.149-.01.255a7.523,7.523,0,0,0,.019.786,5.244,5.244,0,0,0,.128.814c.014.056.028.108.04.155s.026.086.036.12l.033.1a.946.946,0,0,0,.09.189,1.033,1.033,0,0,0,.133.167,1.129,1.129,0,0,0,.168.138,1.23,1.23,0,0,0,.194.1,1.261,1.261,0,0,0,.21.061,1.187,1.187,0,0,0,.215.017,1.019,1.019,0,0,0,.208-.03.838.838,0,0,0,.191-.077h0l-.066-.088c-.042-.055-.1-.14-.16-.237a3.9,3.9,0,0,1-.188-.344c-.031-.062-.06-.129-.088-.2s-.053-.135-.077-.2a3.882,3.882,0,0,1-.175-.745c-.007-.051-.012-.1-.017-.136s-.007-.076-.01-.106l-.007-.091a.765.765,0,0,0-.255-.547A.887.887,0,0,0,1433.161,1355.594Z" transform="translate(-1425.888 -1351.1)" fill="#c49a6c"/>
      <path id="Path_1581" data-name="Path 1581" d="M1451.611,1372.911l0,.024.01.067c.009.058.022.142.044.241a3.609,3.609,0,0,0,.243.736,3.767,3.767,0,0,0,.432.717c.072.094.138.17.184.225l.075.082a1.214,1.214,0,0,0,.1.1,1.169,1.169,0,0,0,.114.082,1.116,1.116,0,0,0,.124.069c.042.02.086.038.131.053a1.279,1.279,0,0,0,.277.063,1.425,1.425,0,0,0,.281,0v-.067a1.245,1.245,0,0,1-.228,0,1.178,1.178,0,0,1-.226-.046,1.063,1.063,0,0,1-.209-.094.923.923,0,0,1-.18-.14l-.021-.021c-.013-.013-.033-.033-.057-.059l-.086-.094c-.032-.036-.068-.076-.106-.123a3.721,3.721,0,0,1-.459-.7,3.477,3.477,0,0,1-.269-.725c-.025-.1-.041-.181-.051-.238s-.015-.09-.015-.09a.856.856,0,0,1,.581-.027.7.7,0,0,1,.382.383l.026.054c.017.036.043.082.076.141a3.189,3.189,0,0,0,.287.416c.06.073.124.144.186.211s.125.126.179.177c.11.1.189.165.189.165v-.147s-.067-.058-.16-.144a3.818,3.818,0,0,1-.314-.334,3.092,3.092,0,0,1-.255-.354l-.041-.067-.029-.053-.025-.046a.9.9,0,0,0-.476-.463.888.888,0,0,0-.326-.048,1.146,1.146,0,0,0-.19.019A1.456,1.456,0,0,0,1451.611,1372.911Z" transform="translate(-1443.342 -1367.402)" fill="#a97c50"/>
      <path id="Path_1582" data-name="Path 1582" d="M1454.643,1374.545a.7.7,0,0,0-.382-.383.857.857,0,0,0-.581.027s0,.033.015.09.026.14.051.238a3.482,3.482,0,0,0,.269.725,3.719,3.719,0,0,0,.459.7c.037.047.073.087.106.123l.086.094c.024.026.044.046.057.059l.021.021a.934.934,0,0,0,.18.14,1.072,1.072,0,0,0,.209.094,1.185,1.185,0,0,0,.225.046,1.27,1.27,0,0,0,.228,0v-.8s-.079-.066-.189-.165c-.054-.051-.116-.112-.179-.177s-.126-.139-.186-.211a3.173,3.173,0,0,1-.287-.416c-.033-.059-.06-.105-.076-.141Z" transform="translate(-1445.298 -1368.614)" fill="#c49a6c"/>
      <path id="Path_1583" data-name="Path 1583" d="M1475.254,1379.348a.787.787,0,0,1,.6-.277V1379a1.016,1.016,0,0,0-.73.333l.024.038c.016.024.038.06.067.1s.063.088.1.139.083.1.129.156.094.1.141.151l.068.069.063.059c.079.073.136.122.136.122v-.147s-.045-.04-.109-.1-.146-.143-.221-.227c-.038-.041-.074-.086-.107-.126s-.063-.077-.087-.112C1475.284,1379.392,1475.254,1379.348,1475.254,1379.348Z" transform="translate(-1465.568 -1373.226)" fill="#a97c50"/>
      <path id="Path_1584" data-name="Path 1584" d="M1477.448,1380.495s.03.044.079.111c.024.034.054.071.087.112s.069.085.107.126c.076.083.157.168.222.227s.109.1.109.1v-.954A.787.787,0,0,0,1477.448,1380.495Z" transform="translate(-1467.762 -1374.373)" fill="#c49a6c"/>
    </g>
  </g>
</svg>
