<?xml version="1.0" encoding="utf-8"?>
<!-- Generator: Adobe Illustrator 24.3.0, SVG Export Plug-In . SVG Version: 6.00 Build 0)  -->
<svg version="1.1" id="Layer_1" xmlns="http://www.w3.org/2000/svg" xmlns:xlink="http://www.w3.org/1999/xlink" x="0px" y="0px"
	 viewBox="0 0 152 52" style="enable-background:new 0 0 152 52;" xml:space="preserve">
<style type="text/css">
	.st0{enable-background:new    ;}
	.st1{fill:#222222;}
	.st2{fill:#555555;}
</style>
<g class="st0">
	<path class="st1" d="M7.4,7.9c-1,0-1.9,0-2.7,0.1C3.9,8.1,3.2,8.2,2.6,8.3C1.9,8.5,1.3,8.6,0.8,8.8l0.4-2.1c0.1,0,0.3,0,0.5,0
		s0.4,0,0.7,0s0.5,0,0.8,0c0.3,0,0.5,0,0.8,0c0.2,0,0.5,0,0.7,0c0.2,0,0.3,0,0.4,0h7.2c0.1,0,0.2,0,0.4,0c0.2,0,0.4,0,0.7,0
		c0.2,0,0.5,0,0.8,0c0.3,0,0.5,0,0.8,0s0.5,0,0.7,0s0.4,0,0.5,0l0.4,2.1c-0.5-0.2-1.2-0.3-1.8-0.4c-0.6-0.1-1.3-0.2-2.1-0.3
		C11.6,8,10.7,7.9,9.7,7.9V20c0,0.7,0,1.3,0,1.9c0,0.5,0,1,0.1,1.4s0.1,0.7,0.1,1s0.1,0.5,0.1,0.7V25H7v-0.1
		c0.1-0.2,0.1-0.4,0.1-0.7s0.1-0.6,0.1-1s0.1-0.9,0.1-1.4c0-0.5,0-1.2,0-1.9V7.9z"/>
	<path class="st1" d="M22.1,20c0,0.7,0,1.3,0,1.9c0,0.5,0,1,0.1,1.4s0.1,0.7,0.1,1s0.1,0.5,0.1,0.7V25h-3v-0.1
		c0.1-0.2,0.1-0.4,0.1-0.7s0.1-0.6,0.1-1s0.1-0.9,0.1-1.4s0-1.2,0-1.9v-8.3c0-0.7,0-1.3,0-1.9c0-0.5,0-1-0.1-1.4s-0.1-0.7-0.1-1
		c0-0.3-0.1-0.5-0.1-0.7V6.8L20,6.8c0.2,0,0.3,0,0.5,0c0.2,0,0.4,0,0.6,0c0.3,0,0.8,0,1.3-0.1c0.6-0.1,1.3-0.1,2.2-0.1
		c0.8,0,1.6,0.1,2.3,0.3s1.3,0.5,1.8,1s0.9,0.9,1.2,1.6c0.3,0.6,0.4,1.3,0.4,2.1c0,0.6-0.1,1.2-0.2,1.7c-0.2,0.5-0.4,1-0.7,1.4
		s-0.6,0.8-1,1.1c-0.4,0.3-0.8,0.6-1.3,0.8l4.5,6.3c0.2,0.3,0.4,0.6,0.6,0.8s0.4,0.4,0.5,0.6c0.2,0.2,0.3,0.3,0.5,0.4
		c0.2,0.1,0.3,0.2,0.5,0.2V25H30c0-0.2-0.1-0.4-0.2-0.6c-0.1-0.3-0.3-0.5-0.5-0.8l-4.5-6.3c-0.2,0-0.4,0-0.6,0c-0.2,0-0.4,0-0.6,0
		c-0.2,0-0.5,0-0.7,0s-0.5,0-0.7-0.1V20z M22.1,16.2c0.2,0.1,0.5,0.1,0.7,0.1c0.2,0,0.5,0,0.7,0c0.6,0,1.2-0.1,1.7-0.3
		c0.5-0.2,1-0.5,1.3-0.9s0.7-0.9,0.9-1.5c0.2-0.6,0.3-1.3,0.3-2c0-0.6-0.1-1.2-0.2-1.7s-0.4-1-0.6-1.3c-0.3-0.4-0.6-0.6-1.1-0.8
		c-0.4-0.2-0.9-0.3-1.5-0.3c-0.6,0-1,0-1.4,0.1s-0.6,0.1-0.8,0.2V16.2z"/>
	<path class="st1" d="M48.7,25L48.7,25c0-0.1,0-0.2,0-0.2s0-0.2,0-0.2c0-0.3,0-0.6-0.1-0.9c-0.1-0.3-0.2-0.7-0.4-1.2L46.7,19
		c-0.5,0-1.1,0-1.9,0s-1.6,0-2.6,0c-0.7,0-1.3,0-1.9,0s-1.2,0-1.7,0l-1.5,3.4c-0.1,0.3-0.3,0.7-0.4,1s-0.2,0.7-0.2,1.1
		c0,0.1,0,0.2,0,0.3c0,0.1,0,0.1,0.1,0.1V25H34v-0.1c0.2-0.2,0.3-0.4,0.6-0.9c0.2-0.4,0.5-0.9,0.7-1.5l7.3-16.1h1l6.9,15.5
		c0.2,0.4,0.3,0.7,0.5,1.1c0.2,0.3,0.3,0.6,0.5,0.9s0.3,0.5,0.4,0.7s0.2,0.3,0.2,0.4V25H48.7z M40.4,17.9c0.5,0,1,0,1.5,0
		c0.5,0,1,0,1.5,0c0.5,0,1,0,1.4,0c0.5,0,0.9,0,1.2,0l-3.6-8.1l-3.5,8.1H40.4z"/>
	<path class="st1" d="M54.9,6.8L54.9,6.8c0,0.1,0,0.2,0,0.2s0,0.2,0,0.2c0,0.3,0,0.6,0.1,0.9c0.1,0.3,0.2,0.7,0.4,1.2L61,22
		l5.4-12.6c0.1-0.3,0.3-0.7,0.4-1S67,7.6,67,7.3c0-0.1,0-0.2,0-0.3c0-0.1,0-0.1-0.1-0.2V6.8h2.6v0.1C69.4,7,69.2,7.3,69,7.7
		s-0.5,0.9-0.7,1.5l-7.3,16.1h-1L53,9.9c-0.2-0.4-0.3-0.7-0.5-1.1S52.2,8.2,52,7.9c-0.2-0.3-0.3-0.5-0.4-0.7s-0.2-0.3-0.2-0.4V6.8
		H54.9z"/>
	<path class="st1" d="M75.3,6.8c1,0,2,0,2.9,0c0.9,0,1.6,0,2.2-0.1c0.6,0,1-0.1,1.3-0.1L81,8.3c-0.3-0.1-0.6-0.1-1-0.2
		C79.7,8,79.3,8,78.9,7.9c-0.5,0-1-0.1-1.6-0.1c-0.2,0-0.4,0-0.7,0c-0.3,0-0.6,0-0.8,0c-0.3,0-0.6,0-0.9,0.1v6.9
		c0.9,0,1.7,0,2.4-0.1c0.7,0,1.3-0.1,1.8-0.1c0.6-0.1,1.1-0.1,1.5-0.2l-0.4,1.8c-0.6-0.1-1.2-0.1-1.8-0.2c-0.5-0.1-1.1-0.1-1.7-0.2
		c-0.6,0-1.2-0.1-1.8-0.1v8c1,0,1.9,0,2.8-0.1c0.8-0.1,1.6-0.2,2.2-0.3c0.7-0.1,1.4-0.3,2-0.4l-0.4,2.1c-0.1,0-0.3,0-0.5,0
		s-0.4,0-0.7,0c-0.2,0-0.5,0-0.8,0c-0.3,0-0.5,0-0.8,0c-0.2,0-0.5,0-0.7,0c-0.2,0-0.3,0-0.4,0h-5.5v-0.1c0.1-0.2,0.1-0.4,0.1-0.7
		s0.1-0.6,0.1-1s0.1-0.9,0.1-1.4c0-0.5,0-1.2,0-1.9v-8.3c0-0.7,0-1.3,0-1.9c0-0.5,0-1-0.1-1.4c0-0.4-0.1-0.7-0.1-1S72.2,7,72.1,6.8
		V6.8C73.2,6.8,74.2,6.8,75.3,6.8z"/>
	<path class="st1" d="M88.9,23.9c1,0,1.9,0,2.8-0.1s1.6-0.2,2.2-0.3c0.7-0.1,1.4-0.3,2-0.4l-0.4,2.1c-0.1,0-0.3,0-0.5,0
		s-0.4,0-0.7,0c-0.2,0-0.5,0-0.8,0c-0.3,0-0.5,0-0.8,0c-0.2,0-0.5,0-0.7,0c-0.2,0-0.3,0-0.4,0h-5.5v-0.1c0.1-0.2,0.1-0.4,0.1-0.7
		c0-0.3,0.1-0.6,0.1-1c0-0.4,0.1-0.9,0.1-1.4c0-0.5,0-1.2,0-1.9v-8.3c0-0.7,0-1.3,0-1.9c0-0.5,0-1-0.1-1.4c0-0.4-0.1-0.7-0.1-1
		c0-0.3-0.1-0.5-0.1-0.7V6.8h3v0.1c-0.1,0.2-0.1,0.4-0.1,0.7c0,0.3-0.1,0.6-0.1,1c0,0.4-0.1,0.9-0.1,1.4c0,0.5,0,1.2,0,1.9V23.9z"/>
	<path class="st1" d="M112,25L112,25c0-0.1,0-0.2,0-0.2c0-0.1,0-0.2,0-0.2c0-0.3,0-0.6-0.1-0.9c-0.1-0.3-0.2-0.7-0.4-1.2L110,19
		c-0.5,0-1.1,0-1.9,0s-1.6,0-2.6,0c-0.7,0-1.3,0-1.9,0s-1.2,0-1.7,0l-1.5,3.4c-0.1,0.3-0.3,0.7-0.4,1c-0.1,0.4-0.2,0.7-0.2,1.1
		c0,0.1,0,0.2,0,0.3c0,0.1,0,0.1,0.1,0.1V25h-2.6v-0.1c0.2-0.2,0.3-0.4,0.6-0.9c0.2-0.4,0.5-0.9,0.7-1.5L106,6.4h1l6.9,15.5
		c0.2,0.4,0.3,0.7,0.5,1.1c0.2,0.3,0.3,0.6,0.5,0.9s0.3,0.5,0.4,0.7c0.1,0.2,0.2,0.3,0.2,0.4V25H112z M103.8,17.9c0.5,0,1,0,1.5,0
		c0.5,0,1,0,1.5,0c0.5,0,1,0,1.4,0c0.5,0,0.9,0,1.2,0l-3.6-8.1l-3.5,8.1H103.8z"/>
	<path class="st1" d="M117.5,24.9c0.1-0.1,0.2-0.3,0.3-0.6c0.1-0.3,0.2-0.6,0.3-1c0.1-0.6,0.2-1.3,0.3-2c0.1-0.7,0.2-1.5,0.4-2.3
		c0.1-0.8,0.2-1.6,0.4-2.5c0.1-0.9,0.2-1.7,0.4-2.5c0.1-0.8,0.2-1.6,0.3-2.4c0.1-0.8,0.2-1.5,0.3-2.1c0.1-0.6,0.2-1.2,0.2-1.7
		c0.1-0.5,0.1-0.8,0.1-1.1h1.6l8,14.9l7.9-14.9h1.2l2.1,15.1c0.1,0.5,0.1,0.9,0.2,1.2c0.1,0.3,0.1,0.6,0.2,0.9
		c0.1,0.2,0.1,0.4,0.2,0.6c0.1,0.2,0.1,0.3,0.2,0.4V25h-3.2v-0.1c0-0.1,0.1-0.2,0.1-0.5s0.1-0.5,0.1-0.8c0-0.1,0-0.2,0-0.3
		c0-0.1,0-0.2,0-0.4l-1.6-12.2l-7.5,14.1l-0.9-0.1l-7.5-14.1c-0.3,2-0.6,3.9-0.8,5.6c-0.1,0.7-0.2,1.5-0.3,2.2
		c-0.1,0.7-0.2,1.4-0.2,2c-0.1,0.6-0.1,1.2-0.2,1.7c0,0.5-0.1,0.8-0.1,1.1c0,0.3,0,0.5,0,0.8c0,0.2,0,0.4,0.1,0.6
		c0,0.2,0.1,0.3,0.1,0.5L117.5,24.9L117.5,24.9z"/>
	<path class="st1" d="M146.3,24.9c0.1-0.2,0.1-0.4,0.1-0.7c0-0.3,0.1-0.6,0.1-1c0-0.4,0.1-0.9,0.1-1.4c0-0.5,0-1.2,0-1.9v-8.3
		c0-0.7,0-1.3,0-1.9c0-0.5,0-1-0.1-1.4c0-0.4-0.1-0.7-0.1-1c0-0.3-0.1-0.5-0.1-0.7V6.8h3v0.1c-0.1,0.2-0.1,0.4-0.1,0.7
		c0,0.3-0.1,0.6-0.1,1c0,0.4-0.1,0.9-0.1,1.4c0,0.5,0,1.2,0,1.9V20c0,0.7,0,1.3,0,1.9c0,0.5,0,1,0.1,1.4c0,0.4,0.1,0.7,0.1,1
		c0,0.3,0.1,0.5,0.1,0.7V25L146.3,24.9L146.3,24.9z"/>
</g>
<g class="st0">
	<path class="st2" d="M29.4,43.8L29.3,44l-1.2,3h-1.1l3.9-8.8l3.9,8.8h-1.1l-1.2-2.9l-0.1-0.2l-1.4-3.4L29.4,43.8z M29,43.5h3.7
		l0.4,1h-4.4L29,43.5z"/>
	<path class="st2" d="M36.8,38.6V47h-1v-8.4H36.8z M36.3,47v-1h2c0.5,0,0.9-0.1,1.3-0.2c0.4-0.1,0.7-0.4,1-0.6
		c0.3-0.3,0.5-0.6,0.6-1c0.2-0.4,0.2-0.8,0.2-1.3c0-0.5-0.1-0.9-0.2-1.3c-0.2-0.4-0.4-0.7-0.6-1c-0.3-0.3-0.6-0.5-1-0.6
		c-0.4-0.1-0.8-0.2-1.3-0.2h-2v-1h2c0.8,0,1.5,0.2,2.2,0.5c0.6,0.4,1.1,0.8,1.5,1.5c0.4,0.6,0.5,1.4,0.5,2.2s-0.2,1.6-0.5,2.2
		c-0.4,0.6-0.9,1.1-1.5,1.5c-0.6,0.4-1.4,0.5-2.2,0.5H36.3z"/>
	<path class="st2" d="M49.3,38.6h1.1l-3.9,8.8l-3.9-8.8h1.1l2.8,6.5L49.3,38.6z"/>
	<path class="st2" d="M52.5,38.6V47h-1v-8.4H52.5z M52,38.6h4.2v1H52V38.6z M52,42h4v1h-4V42z M52,46h4.2v1H52V46z"/>
	<path class="st2" d="M65.5,38.6v8.8l-6.4-6.7V47h-1v-8.8l6.4,6.7v-6.3H65.5z"/>
	<path class="st2" d="M66.5,38.6h5.3v1h-2.2V47h-1v-7.4h-2.2V38.6z"/>
	<path class="st2" d="M73.9,38.6v5.6c0,0.6,0.2,1,0.5,1.4c0.3,0.4,0.8,0.5,1.4,0.5s1.1-0.2,1.4-0.5c0.3-0.4,0.5-0.8,0.5-1.4v-5.6h1
		v5.6c0,0.4-0.1,0.8-0.2,1.2c-0.1,0.4-0.3,0.7-0.6,0.9c-0.3,0.3-0.6,0.5-0.9,0.6c-0.4,0.1-0.7,0.2-1.2,0.2c-0.4,0-0.8-0.1-1.2-0.2
		c-0.4-0.1-0.7-0.3-0.9-0.6c-0.3-0.3-0.4-0.6-0.6-0.9c-0.1-0.4-0.2-0.7-0.2-1.2v-5.6H73.9z"/>
	<path class="st2" d="M81.5,38.6V47h-1v-8.4H81.5z M81,38.6h1.7c0.5,0,1,0.1,1.5,0.3c0.4,0.2,0.8,0.5,1,0.9s0.4,0.8,0.4,1.3
		c0,0.5-0.1,1-0.4,1.3s-0.6,0.7-1,0.9c-0.4,0.2-0.9,0.3-1.5,0.3H81v-0.9h1.7c0.4,0,0.7-0.1,1-0.2c0.3-0.1,0.5-0.3,0.6-0.6
		s0.2-0.5,0.2-0.9s-0.1-0.6-0.2-0.9s-0.4-0.4-0.6-0.6c-0.3-0.1-0.6-0.2-1-0.2H81V38.6z M83.1,42.9l3,4.1h-1.3L82,42.9H83.1z"/>
	<path class="st2" d="M88.2,38.6V47h-1v-8.4H88.2z M87.8,38.6H92v1h-4.2V38.6z M87.8,42h4v1h-4V42z M87.8,46H92v1h-4.2V46z"/>
	<path class="st2" d="M96.5,38.6h5.3v1h-2.2V47h-1v-7.4h-2.2V38.6z"/>
	<path class="st2" d="M102.2,41.1c0.2-0.5,0.5-1,0.9-1.4c0.4-0.4,0.8-0.7,1.4-0.9c0.5-0.2,1.1-0.3,1.7-0.3c0.6,0,1.2,0.1,1.7,0.3
		c0.5,0.2,1,0.5,1.3,0.9c0.4,0.4,0.7,0.8,0.9,1.4c0.2,0.5,0.3,1.1,0.3,1.7c0,0.6-0.1,1.2-0.3,1.7c-0.2,0.5-0.5,1-0.9,1.4
		c-0.4,0.4-0.8,0.7-1.3,0.9c-0.5,0.2-1.1,0.3-1.7,0.3c-0.6,0-1.2-0.1-1.7-0.3c-0.5-0.2-1-0.5-1.4-0.9c-0.4-0.4-0.7-0.8-0.9-1.4
		s-0.3-1.1-0.3-1.7C101.9,42.2,102,41.6,102.2,41.1z M103.4,44.5c0.3,0.5,0.7,0.9,1.1,1.2c0.5,0.3,1,0.4,1.6,0.4
		c0.6,0,1.2-0.1,1.6-0.4c0.5-0.3,0.9-0.7,1.1-1.2c0.3-0.5,0.4-1.1,0.4-1.7s-0.1-1.2-0.4-1.7c-0.3-0.5-0.7-0.9-1.1-1.2
		c-0.5-0.3-1-0.4-1.6-0.4c-0.6,0-1.2,0.1-1.6,0.4c-0.5,0.3-0.9,0.7-1.1,1.2c-0.3,0.5-0.4,1.1-0.4,1.7S103.1,44,103.4,44.5z"/>
	<path class="st2" d="M112.8,38.6v5.6c0,0.6,0.2,1,0.5,1.4c0.3,0.4,0.8,0.5,1.4,0.5c0.6,0,1.1-0.2,1.4-0.5c0.3-0.4,0.5-0.8,0.5-1.4
		v-5.6h1v5.6c0,0.4-0.1,0.8-0.2,1.2c-0.1,0.4-0.3,0.7-0.6,0.9c-0.3,0.3-0.6,0.5-0.9,0.6c-0.4,0.1-0.7,0.2-1.2,0.2
		c-0.4,0-0.8-0.1-1.2-0.2c-0.4-0.1-0.7-0.3-0.9-0.6c-0.3-0.3-0.4-0.6-0.6-0.9c-0.1-0.4-0.2-0.7-0.2-1.2v-5.6H112.8z"/>
	<path class="st2" d="M120.4,38.6V47h-1v-8.4H120.4z M119.9,38.6h1.7c0.5,0,1,0.1,1.5,0.3c0.4,0.2,0.8,0.5,1,0.9s0.4,0.8,0.4,1.3
		c0,0.5-0.1,1-0.4,1.3s-0.6,0.7-1,0.9c-0.4,0.2-0.9,0.3-1.5,0.3h-1.7v-0.9h1.7c0.4,0,0.7-0.1,1-0.2c0.3-0.1,0.5-0.3,0.6-0.6
		s0.2-0.5,0.2-0.9s-0.1-0.6-0.2-0.9s-0.4-0.4-0.6-0.6c-0.3-0.1-0.6-0.2-1-0.2h-1.7V38.6z M122,42.9l3,4.1h-1.3l-2.9-4.1H122z"/>
</g>
</svg>
